<svg id="图层_1" data-name="图层 1" xmlns="http://www.w3.org/2000/svg" viewBox="0 0 967.77 967.77"><defs><style>.cls-1{fill:#fff;}.cls-2{fill:#fdd000;}.cls-3{fill:#587558;}.cls-4,.cls-5{fill:#231815;}.cls-5{fill-rule:evenodd;}</style></defs><path class="cls-1" d="M512.2,28.12C245,28.12,28.32,244.76,28.32,512S245,995.89,512.2,995.89,996.09,779.25,996.09,512,779.45,28.12,512.2,28.12Z" transform="translate(-28.32 -28.12)"/><path class="cls-2" d="M361.05,549.78V518.19h31.42A127.39,127.39,0,0,1,487,436.85v-15h-5.8v-2.38a58.94,58.94,0,0,1,27.95-10.21v-21h6.17v21a59,59,0,0,1,28,10.21v2.38h-5.81v15a127.4,127.4,0,0,1,94.51,81.34h31.41v31.59h28.48l-88,152.33H420.53L332.58,549.78Z" transform="translate(-28.32 -28.12)"/><path class="cls-3" d="M480.78,428.06v3.82A133.59,133.59,0,0,0,388.21,512H354.86v31.59H329l-89.66-155.3H502.93V403.9A65.26,65.26,0,0,0,475,416.34v11.72Z" transform="translate(-28.32 -28.12)"/><path class="cls-3" d="M669.55,543.59V512H636.2a133.62,133.62,0,0,0-92.58-80.12v-3.82h5.81V416.34a65.26,65.26,0,0,0-27.95-12.44V388.29H785.06L695.4,543.59Z" transform="translate(-28.32 -28.12)"/><polygon class="cls-3" points="483.89 832.78 400.64 688.6 567.13 688.6 483.89 832.78"/><path class="cls-2" d="M512.2,65.54C265.63,65.54,65.74,265.43,65.74,512S265.63,958.47,512.2,958.47,958.67,758.58,958.67,512,758.78,65.54,512.2,65.54Zm27.21,790.57L512.2,903.23l-27.15-47A345.24,345.24,0,0,1,167.57,539.73C152.26,349.69,293.9,183.21,484,167.9S840.47,294.23,855.78,484.27,729.45,840.79,539.41,856.11Z" transform="translate(-28.32 -28.12)"/><path class="cls-4" d="M512.2,56.44C260.6,56.44,56.64,260.4,56.64,512s204,455.56,455.56,455.56S967.76,763.6,967.76,512,763.8,56.44,512.2,56.44Zm0,902C265.63,958.47,65.74,758.58,65.74,512S265.63,65.54,512.2,65.54,958.67,265.43,958.67,512,758.78,958.47,512.2,958.47Z" transform="translate(-28.32 -28.12)"/><path class="cls-4" d="M855.78,484.27C840.47,294.23,674,152.58,484,167.9S152.26,349.69,167.57,539.73A345.24,345.24,0,0,0,485.05,856.2l27.15,47,27.21-47.12C729.45,840.79,871.1,674.32,855.78,484.27ZM367.32,209.33c167.17-80,367.55-9.37,447.56,157.79H209.53A335.48,335.48,0,0,1,367.32,209.33ZM480.78,428.06v3.82A133.59,133.59,0,0,0,388.21,512H354.86v31.59H329l-89.66-155.3H502.93V403.9A65.26,65.26,0,0,0,475,416.34v11.72ZM361.05,549.78V518.19h31.42A127.39,127.39,0,0,1,487,436.85v-15h-5.8v-2.38a58.94,58.94,0,0,1,27.95-10.21v-21h6.17v21a59,59,0,0,1,28,10.21v2.38h-5.81v15a127.4,127.4,0,0,1,94.51,81.34h31.41v31.59h28.48l-88,152.33H420.53L332.58,549.78Zm308.5-6.19V512H636.2a133.62,133.62,0,0,0-92.58-80.12v-3.82h5.81V416.34a65.26,65.26,0,0,0-27.95-12.44V388.29H785.06L695.4,543.59ZM373.89,817.73C205,741.34,130.08,542.54,206.47,373.69L479.12,845.93A335.34,335.34,0,0,1,373.89,817.73ZM512.2,860.9,429,716.71H595.45Zm33.08-15L817.93,373.69a335.34,335.34,0,0,1,28.2,105.23C864.4,663.35,729.71,827.66,545.28,845.93Z" transform="translate(-28.32 -28.12)"/><g id="LWPOLYLINE"><rect class="cls-4" x="387.4" y="590.26" width="192.98" height="15.11"/></g><g id="CIRCLE"><path class="cls-4" d="M220.26,791.78a11.65,11.65,0,1,1,11.65,11.64,11.66,11.66,0,0,1-11.65-11.64Z" transform="translate(-28.32 -28.12)"/></g><g id="CIRCLE-2" data-name="CIRCLE"><path class="cls-4" d="M780.86,791.78a11.64,11.64,0,1,1,11.64,11.64,11.65,11.65,0,0,1-11.64-11.64Z" transform="translate(-28.32 -28.12)"/></g><g id="SPLINE"><path class="cls-4" d="M235.49,743.29a5.06,5.06,0,0,1-2.5-1.57,10.72,10.72,0,0,1-1.67-3.81,45.77,45.77,0,0,0-2.47-7.22,43.39,43.39,0,0,0-3.26-5.34c-4.23-5.46-9.43-8.69-15.36-9.68A19.41,19.41,0,0,0,187.48,730c-1,4.33-.59,10.86,1.22,19.66a94,94,0,0,1,2.07,12.24,15.41,15.41,0,0,1-.85,6.53,7.11,7.11,0,0,1-2.47,3.35,8.64,8.64,0,0,1-6.89,1.48c-2.65-.46-5-2-7.19-4.78-2.66-3.54-3.82-7.84-3.51-13a23.24,23.24,0,0,1,6.38-14.22l-1.3-1.7L157.23,754l.94,1.18c1.86-.92,3.2-1.31,3.89-1.18a2.27,2.27,0,0,1,1.9,1.1,13.08,13.08,0,0,1,1.67,4.81,37.5,37.5,0,0,0,1.82,6,25.11,25.11,0,0,0,3.45,5.62,21.1,21.1,0,0,0,13.89,8.5,18.26,18.26,0,0,0,14.74-3.77,18.06,18.06,0,0,0,5.54-7,23.56,23.56,0,0,0,1.76-9.5c.09-3.41-.6-8.53-2-15.33a52.42,52.42,0,0,1-1.54-10.55,16.78,16.78,0,0,1,1-5.8,9.21,9.21,0,0,1,2.87-3.82,9.58,9.58,0,0,1,7.77-1.73c3,.5,5.65,2.28,8,5.24,3,3.9,4.32,8.69,3.89,14.4s-2.93,11.39-7.76,17l1.1,1.42,20.35-15.86-1.06-1.41A7.13,7.13,0,0,1,235.49,743.29Z" transform="translate(-28.32 -28.12)"/></g><path class="cls-4" d="M184.61,658.51c-5.22-11-13.2-17.7-24-20.07a36.52,36.52,0,0,0-23.89,2.83c-9.13,4.29-15.4,11-18.63,19.93-3.15,9.07-2.28,18.43,2.71,28.13a33.41,33.41,0,0,0,19.41,18.9,34.47,34.47,0,0,0,27.38-1.44,36,36,0,0,0,17.78-17.17C190.08,680.06,189.86,669.64,184.61,658.51Zm-3.55,15.08c-3.39,6.17-10.21,11.62-20.78,16.5-8.85,4.13-16.18,6.18-22.09,6.13-7.05-.34-12-3.23-14.61-8.92a15.1,15.1,0,0,1-1.4-9.27c.64-3.19,2.54-6.38,5.95-9.88s9-7,17.16-10.81c6.92-3.28,12.79-5.15,17.71-5.61s9.07.1,12.27,1.85a14.33,14.33,0,0,1,5.95,6.76C183.37,665,183.35,669.4,181.06,673.59Z" transform="translate(-28.32 -28.12)"/><g id="SPLINE-2" data-name="SPLINE"><path class="cls-4" d="M106,613l32.91-6.59c5.58-1.07,9.82-2.86,12.7-5.32,3.07-2.44,5.11-6,6.36-10.71.87-3.48.77-8.17-.38-13.94-1.44-6.95-4-12.07-7.71-15.52s-7.54-5.29-11.26-5.6-9.47.27-17.25,1.86l-25.55,5.12c-2.63.54-4.63.75-5.75.44a6.13,6.13,0,0,1-4-1.92A9.9,9.9,0,0,1,84,556.28l-.18-1.35-1.85.32,4.62,23.17,1.83-.34a12.4,12.4,0,0,1,0-6.33,5.54,5.54,0,0,1,2.11-2.94,17.47,17.47,0,0,1,6.21-2.19l27.39-5.47c7.08-1.4,12.25-1.81,15.36-1.13a14.47,14.47,0,0,1,7.9,4.29,17.33,17.33,0,0,1,4.29,8.7,13.55,13.55,0,0,1-.41,8.2,11.71,11.71,0,0,1-3.91,5.43c-1.8,1.24-5.67,2.48-11.64,3.71L102.82,597c-3.78.67-6.17,1-7.25.85a5,5,0,0,1-2.65-1.74c-.72-.78-1.39-2.52-1.88-5.1l-.38-1.74-1.74.37,6.92,34.53,1.73-.36c-.52-2.86-.69-4.85-.42-6A6,6,0,0,1,99,615.06C99.88,614.47,102.25,613.76,106,613Z" transform="translate(-28.32 -28.12)"/></g><g id="SPLINE-3" data-name="SPLINE"><path class="cls-4" d="M98.47,522.74c-5.09-1-8.87-2.92-11.52-5.94-1.9-2.17-2.71-5.58-2.59-10.24l.12-5.11L137.24,503c3.46.15,5.59.43,6.45.83a4.63,4.63,0,0,1,2.33,2.08,10.37,10.37,0,0,1,.94,4.8l-.09,2.22,1.83.07,1.05-35.55-1.84,0,0,2.21a9.45,9.45,0,0,1-1.23,4.56,4.83,4.83,0,0,1-2.35,2.1c-.94.36-3.15.46-6.62.5L85,485.07l.23-5.1c0-3.22.42-5.42,1.1-6.72A13.48,13.48,0,0,1,90.88,468c1.9-1.24,5-2.3,9.29-3.31l0-1.81-18.55-.54L79.84,524l18.47.54Z" transform="translate(-28.32 -28.12)"/></g><g id="SPLINE-4" data-name="SPLINE"><path class="cls-4" d="M88,428.43a7.56,7.56,0,0,1,2.14-4.09A5,5,0,0,1,93,422.85c1-.19,3.2.23,6.49,1.15l43.4,11.85c3.35.91,5.45,1.66,6.07,2.21a5.23,5.23,0,0,1,1.86,2.63,9.16,9.16,0,0,1-.21,4.77l-.63,2.27,1.81.52,9.33-34.34-1.8-.47-.55,2.09a9.2,9.2,0,0,1-2.11,4.11,5.36,5.36,0,0,1-2.88,1.61c-1,.16-3.1-.31-6.56-1.12l-20.38-5.61L133.28,391l20.41,5.58c3.29.93,5.31,1.66,6,2.21a4.78,4.78,0,0,1,1.78,2.67,8.83,8.83,0,0,1-.15,4.83l-.58,2.12,1.76.48,9.35-34.26-1.81-.44-.57,2.08a8.8,8.8,0,0,1-2.13,4.17,5.11,5.11,0,0,1-2.74,1.57c-1,.12-3.22-.35-6.67-1.27L114.59,369a29.55,29.55,0,0,1-6.08-2.28,5,5,0,0,1-1.73-2.66,8.2,8.2,0,0,1,.2-4.86l.53-2.09-1.71-.51-9.44,34.23,1.81.52.57-2.17a10.61,10.61,0,0,1,2.18-4.13,4.82,4.82,0,0,1,2.83-1.5c.94-.16,3.17.24,6.55,1.18l18.65,5-6.39,23.49-18.66-5.1q-5.09-1.36-6.06-2.22a5.13,5.13,0,0,1-1.82-2.6,9.05,9.05,0,0,1,.19-4.88l.57-2.2L95,395.85l-9.36,34.32,1.82.43Z" transform="translate(-28.32 -28.12)"/></g><g id="SPLINE-5" data-name="SPLINE"><path class="cls-4" d="M120.53,327.66a8.18,8.18,0,0,1,3.71-3.84,4.56,4.56,0,0,1,3.33-.33,33.63,33.63,0,0,1,5.15,2.52l39.47,21.61c3,1.69,4.75,2.84,5.35,3.57a4.59,4.59,0,0,1,1.16,3,8.45,8.45,0,0,1-1.35,4.64l-1.07,2,1.52.86L206.23,310l-17.59-13.17-.88,1.64c4.52,4.41,7.07,9,7.72,13.78.85,4.76-.36,10-3.41,15.5l-1.91,3.64a9.48,9.48,0,0,1-2.79,3.29,3.75,3.75,0,0,1-2.71.55c-.79-.08-2.95-1.07-6.25-2.92l-16.91-9.23a17.33,17.33,0,0,1,4.68-6,11.85,11.85,0,0,1,6.55-1.53,28.5,28.5,0,0,1,9.65,2.31l.89-1.53-31.53-17.18-.8,1.53c4.37,3,7.34,6.07,8.77,9.13s1.18,6.39-.88,10.26l-.69,1.1-24.35-13.3,3.31-6.1q3.78-6.8,6-8.89a15.41,15.41,0,0,1,7.77-4.35c2.74-.49,6.44,0,11.22,1.47l.87-1.58-17.64-9.73-27.46,50.09,1.61.83Z" transform="translate(-28.32 -28.12)"/></g><path class="cls-4" d="M263.12,238.59a7.84,7.84,0,0,1-4.64,2.31c-2.05.28-5.87-.59-11.47-2.39L188.9,219.4l-.75.78,24.55,54.48c2.41,5.21,3.68,9,3.88,11.33a9.41,9.41,0,0,1-1.65,6.56l1.38,1.24,15.09-17L230,275.56q-3.81,3.78-5.34,4.19a4.52,4.52,0,0,1-4.79-1.09,14.5,14.5,0,0,1-3.2-4.79l-3-6.72,15.83-17.71,8.94,3c2.27.72,3.57,1.25,3.88,1.34a6.88,6.88,0,0,1,1.54,1.06,2.62,2.62,0,0,1,1.08,2.39,11.55,11.55,0,0,1-2.83,5l-1,1,1.41,1.22,21.94-24.72ZM212,263.36l-10.4-23.11,24,7.87Z" transform="translate(-28.32 -28.12)"/><g id="SPLINE-6" data-name="SPLINE"><path class="cls-4" d="M255.43,194.3a26.85,26.85,0,0,0,9.36,2.14,84.13,84.13,0,0,0,15.44-1.61c5-.79,8.36-1.24,10.64-1.12a13.49,13.49,0,0,1,5.69,1.17,8.53,8.53,0,0,1,3.79,3,10.06,10.06,0,0,1,1.56,7.79,13.92,13.92,0,0,1-5.62,7.87c-4,2.88-8.78,4.05-14.53,3.44s-11.27-3.32-16.8-8.36l-1.4,1.11,15.2,20.91,1.45-1.14a6.26,6.26,0,0,1,.13-3.89A4.9,4.9,0,0,1,282,223a11.47,11.47,0,0,1,3.75-1.48,51.54,51.54,0,0,0,7.35-2.29,30.62,30.62,0,0,0,5.39-3c5.54-4.13,9-9.05,10.19-15.13a19.28,19.28,0,0,0-3.16-15.82A19.06,19.06,0,0,0,295.12,178c-4.32-1.16-11-1-19.66.61a114.64,114.64,0,0,1-12.32,1.65,16.39,16.39,0,0,1-6.59-1.07,8,8,0,0,1-3.18-2.61,8.61,8.61,0,0,1-1.3-6.94c.55-2.6,2.33-4.9,5-7,3.62-2.65,8.08-3.68,13.18-3.13a23.19,23.19,0,0,1,14,6.9l1.7-1.3L272.18,147l-1.19.84A11.6,11.6,0,0,1,272,151.8a2.8,2.8,0,0,1-1.21,1.93,15.88,15.88,0,0,1-4.84,1.48,53.82,53.82,0,0,0-6.08,1.66,26.65,26.65,0,0,0-5.7,3.23c-4.93,3.59-8,8.13-9,13.58a18.91,18.91,0,0,0,10.2,20.62Z" transform="translate(-28.32 -28.12)"/></g><g id="SPLINE-7" data-name="SPLINE"><path class="cls-4" d="M313.78,144.69c-1.3-4.83-1.19-9.14.42-12.81,1.11-2.72,3.73-4.94,8-6.82l4.63-2.12L348.5,171c1.41,3.2,2.15,5.18,2.05,6.12a5,5,0,0,1-.76,3,9.58,9.58,0,0,1-4,3l-1.92.87.66,1.71L377,171.16l-.76-1.67-2,.85a8.71,8.71,0,0,1-4.54,1.07,5.25,5.25,0,0,1-3-1.29c-.71-.62-1.81-2.56-3.26-5.79l-21.61-48.14,4.73-2c2.95-1.34,5-2,6.46-2a13.91,13.91,0,0,1,6.79,1.87q2.91,1.74,7.06,6.88l1.68-.68-7.72-16.91-56.19,25.26,7.61,16.94Z" transform="translate(-28.32 -28.12)"/></g><g id="SPLINE-8" data-name="SPLINE"><path class="cls-4" d="M669.71,118.85c.11,1-.74,3.42-2.4,6.9l-14,30.46c-2.42,5.21-3.43,9.64-3.17,13.48s1.91,7.61,5,11.43q3.42,4.11,11.41,7.89c6.4,2.9,12.14,3.88,17.14,2.87s8.61-2.91,11.14-5.67,5.34-7.94,8.72-15.26l10.77-23.6a18.19,18.19,0,0,1,3-5,7.24,7.24,0,0,1,4-2,8.92,8.92,0,0,1,4.77,1l1.28.49.82-1.61-21.52-9.84-.75,1.64a15.09,15.09,0,0,1,5.19,3.62,6.12,6.12,0,0,1,1.06,3.52c0,1.45-.63,3.56-1.89,6.33l-11.67,25.39c-3,6.55-5.74,11-8.12,13.08a15.46,15.46,0,0,1-8.08,3.87,17.28,17.28,0,0,1-9.62-1.68,14.72,14.72,0,0,1-6.38-5.11,11.16,11.16,0,0,1-2-6.36c0-2.16,1.28-6.08,3.79-11.72l14-30.33c1.59-3.57,2.81-5.65,3.67-6.44a4.42,4.42,0,0,1,2.83-1.16,13.65,13.65,0,0,1,5.22,1.46l1.63.77.77-1.6L664.3,111l-.77,1.6c2.7,1.23,4.35,2.29,5.15,3.25A4.68,4.68,0,0,1,669.71,118.85Z" transform="translate(-28.32 -28.12)"/></g><g id="SPLINE-9" data-name="SPLINE"><path class="cls-4" d="M707.82,207.35l19.27,14.87,1.1-1.47-1.28-1a10.3,10.3,0,0,1-3.71-5.39c-.61-2.27.26-4.84,2.64-7.89l26.79-34.72,1.83,73.49,1.43,1.07,34.73-45.09a19.77,19.77,0,0,1,4.85-4.9,5.91,5.91,0,0,1,3.65-1,19.31,19.31,0,0,1,5.46,2.46l1-1.45-17.89-13.82L786.66,184c3,2.26,4.6,4.62,4.67,7.24.07,1.83-1.17,4.38-3.74,7.67l-17.74,23-1-54-19.32-14.85-1,1.43a9.89,9.89,0,0,1,3.13,3.73,13.58,13.58,0,0,1,.82,5.29V166L723,204.2c-2.17,2.93-4.36,4.42-6.4,4.68s-4.61-.67-7.67-3Z" transform="translate(-28.32 -28.12)"/></g><g id="SPLINE-10" data-name="SPLINE"><path class="cls-4" d="M824.91,220.85a5.55,5.55,0,0,1-.21,3.24c-.44.84-1.92,2.47-4.55,4.89L786.77,259.1c-2.61,2.26-4.38,3.54-5.14,3.77a3.85,3.85,0,0,1-3.18.18,9,9,0,0,1-4-2.76l-1.5-1.7-1.37,1.26,23.78,26.33L796.8,285l-1.52-1.69a7.75,7.75,0,0,1-2.3-4,5.26,5.26,0,0,1,.19-3.16c.36-.95,1.87-2.6,4.52-5l33.4-30.06c2.56-2.3,4.28-3.61,5.11-3.88a5,5,0,0,1,3.23-.11,10,10,0,0,1,4,2.77l1.44,1.72,1.38-1.19L822.48,214l-1.41,1.15,1.5,1.75A9,9,0,0,1,824.91,220.85Z" transform="translate(-28.32 -28.12)"/></g><g id="SPLINE-11" data-name="SPLINE"><path class="cls-4" d="M820.24,323.94l.88,1.6,56.76-7.63c6.78-.94,11.24-1.28,13.46-.9a10.67,10.67,0,0,1,6.85,3.47l1.6-.93-11.81-19-1.56.95a15.09,15.09,0,0,1,2.3,5.35,4.66,4.66,0,0,1-.27,2.94,5.2,5.2,0,0,1-1.82,2.09,11,11,0,0,1-3,1.2,78.4,78.4,0,0,1-7.89,1.36L843,319l21.24-30.22c2.28-3.25,3.66-5.24,4.18-5.87a5.58,5.58,0,0,1,1.67-1.45,2.46,2.46,0,0,1,2.48-.24c1.2.46,2.59,2,4.19,4.55l.59.94,1.52-.95L861.53,258l-1.53.93c1.16,2.41,1.51,4.34,1,5.74s-2.69,5.07-6.84,10.93Z" transform="translate(-28.32 -28.12)"/></g><g id="SPLINE-12" data-name="SPLINE"><path class="cls-4" d="M902.12,354.87l-42.35,14.95a24.77,24.77,0,0,1-6.29,1.65,4.88,4.88,0,0,1-3-1.15,8.71,8.71,0,0,1-2.55-4.1l-.8-2.17-1.66.62L865,420.25l21.5-4.31-.66-1.72c-6.25.39-11.42-.7-15.43-3.4s-7.14-7-9.29-13L859.8,394c-.66-1.91-.91-3.31-.65-4.28a4,4,0,0,1,1.45-2.34c.55-.54,2.77-1.52,6.3-2.72l18.27-6.47c1,3.09,1.48,5.66,1.21,7.53a10.51,10.51,0,0,1-3.21,5.9,28,28,0,0,1-8.22,5.6l.63,1.69L909.41,387l-.63-1.64c-5.17,1.26-9.4,1.39-12.66.42s-5.51-3.43-7-7.5l-.4-1.34,26.16-9.19,2.31,6.59c1.7,4.9,2.65,8.41,2.7,10.32A15.94,15.94,0,0,1,918,393.3c-1.5,2.42-4.39,4.88-8.64,7.48l.53,1.66L929,395.75,910,342l-1.76.56.8,2.12a8.35,8.35,0,0,1,.38,5.42,6,6,0,0,1-1.9,2.7A41.82,41.82,0,0,1,902.12,354.87Z" transform="translate(-28.32 -28.12)"/></g><path class="cls-4" d="M941.92,477.39c.68-3.94.54-10-.46-18.23l-3.89-31.56-1.75.21c.34,3.14.4,5.29-.11,6.43a5,5,0,0,1-1.94,2.78c-.88.55-3.19,1.08-6.82,1.54l-44.35,5.36c-3.58.42-6,.43-6.93.16a5.73,5.73,0,0,1-2.6-2.17c-.64-1-1.22-3.18-1.64-6.32l-1.81.25,4.26,34.92,1.78-.17c-.34-3.18-.36-5.39.05-6.54a5.28,5.28,0,0,1,2-2.66c.9-.61,3.15-1.08,6.86-1.53l19.16-2.35.55,4.5L876,487.73l2.63,21.15,1.78-.24a8.23,8.23,0,0,1,1.12-4.92,35.52,35.52,0,0,1,5-5.23l21-18.92c1.56,3.95,3.44,7,5.8,9a16,16,0,0,0,13.12,3.83,17.15,17.15,0,0,0,10.28-4.86A18.58,18.58,0,0,0,941.92,477.39Zm-6.59-6.28c-2.06,2.71-5.77,4.4-10.86,5.08a17.59,17.59,0,0,1-8.87-1,10.66,10.66,0,0,1-5.2-4.93c-1.11-2.22-2-5.64-2.52-10.32l-.4-2.92,29.41-3.58.65,5.41C938.26,464.33,937.46,468.37,935.33,471.11Z" transform="translate(-28.32 -28.12)"/><g id="SPLINE-13" data-name="SPLINE"><path class="cls-4" d="M918.4,525.68a23.55,23.55,0,0,0-7.63,5.71c-2.41,2.54-5.36,6.79-8.9,12.72a53.58,53.58,0,0,1-6.16,8.84,13.7,13.7,0,0,1-4.54,3.53,10.31,10.31,0,0,1-4.79.87,9.41,9.41,0,0,1-6.87-4c-1.89-2.38-2.57-5.46-2.21-9.33.26-4.91,2.64-9.28,6.77-13.19s9.85-6.39,17.19-7.26l.22-1.78-25.69-2.14-.15,1.76a8.81,8.81,0,0,1,2.93,2.68,6.16,6.16,0,0,1,.77,2.82,15.71,15.71,0,0,1-1.31,3.93,42,42,0,0,0-3.1,7.11,25.86,25.86,0,0,0-1.16,6c-.54,6.95,1,12.8,4.72,17.6s8.41,7.49,14,7.83a18.23,18.23,0,0,0,12.31-3.06c3.78-2.5,7.91-7.62,12.45-15.21,3.3-5.47,5.52-9,6.82-10.4a16,16,0,0,1,5-4.35,7.42,7.42,0,0,1,4.15-.69,8.65,8.65,0,0,1,6.07,3.46,12.65,12.65,0,0,1,2,8.47c-.43,4.49-2.46,8.36-6.22,11.92a23.61,23.61,0,0,1-14.38,6.15l-.18,2.17,22.75,1.3.13-1.44c-1.94-.63-3.18-1.19-3.61-1.74a2.37,2.37,0,0,1-.71-2.12c.06-.94.76-2.51,2-4.72a32.8,32.8,0,0,0,2.68-5.58,26,26,0,0,0,1.29-6.44c.56-6.15-.93-11.38-4.39-15.65a18.41,18.41,0,0,0-13.44-7.25A17.62,17.62,0,0,0,918.4,525.68Z" transform="translate(-28.32 -28.12)"/></g><g id="SPLINE-14" data-name="SPLINE"><path class="cls-4" d="M934.7,599.66a9.2,9.2,0,0,1-2,4.2,5.34,5.34,0,0,1-2.78,1.62c-.94.17-3.17-.22-6.54-1.05l-43.75-10.62c-3.32-.86-5.4-1.57-6.09-2.13a4.48,4.48,0,0,1-1.9-2.48,8.86,8.86,0,0,1,.11-4.88l.51-2.15-1.81-.49-8.35,34.57,1.72.46.59-2.21a9.57,9.57,0,0,1,2-4.2,4.56,4.56,0,0,1,2.79-1.6c.92-.19,3.18.13,6.6.93l43.68,10.71c3.33.82,5.4,1.45,6,2.07a4.47,4.47,0,0,1,1.91,2.46,8.52,8.52,0,0,1-.1,5l-.57,2.12,1.84.49,8.4-34.56-1.74-.47Z" transform="translate(-28.32 -28.12)"/></g><g id="SPLINE-15" data-name="SPLINE"><path class="cls-4" d="M903.89,651.16c4.27,2.67,7.13,6,8.48,9.75.9,2.72.5,6.15-1.32,10.5l-2.19,4.67L860.63,655a24.09,24.09,0,0,1-5.74-3,4.57,4.57,0,0,1-1.36-2.84,8.29,8.29,0,0,1,.86-4.76l.89-2.08-1.65-.76-14.19,32.59,1.64.75.89-2.07a9.67,9.67,0,0,1,2.74-3.76,5,5,0,0,1,3-1.1c.91-.06,3,.7,6.32,2.1l48.34,21-2,4.7c-1.34,2.94-2.49,4.89-3.52,5.73a13.58,13.58,0,0,1-6.25,3.25c-2.25.46-5.51.36-9.86-.31l-.75,1.62,17,7.26,24.63-56.46-17-7.39Z" transform="translate(-28.32 -28.12)"/></g><g id="SPLINE-16" data-name="SPLINE"><path class="cls-4" d="M878.6,738.84c-1.58.34-5.7.21-12.26-.54l-33.16-4.4-11-8c-2.84-2-4.44-3.37-4.88-4.2a4.6,4.6,0,0,1-.76-3.09,9,9,0,0,1,1.85-4.49l2.13-2.83-1.42-1.08-22.51,30.85,1.45,1.09,2.31-3.14a9,9,0,0,1,3.32-2.92,5,5,0,0,1,3.15-.39c.93.17,2.84,1.42,5.71,3.46l13.29,9.66,11.39,26.64c2.94,6.71,4.51,11.15,4.64,13.29a10.29,10.29,0,0,1-1.43,5.34l1.42,1.08,12.32-16.82-1.53-1.09c-1.93,2.4-3.56,3.77-5,4.19a2.53,2.53,0,0,1-2.52-.29c-1.42-1-3.25-4.19-5.55-9.64l-9.31-22.13,25.42,3.3c5.59.71,8.93,1.44,9.91,2.2a2.62,2.62,0,0,1,.83,2,7.29,7.29,0,0,1-1.77,3.82l-.86,1.26,1.45,1,19.28-26.43-1.44-1.08A8.81,8.81,0,0,1,878.6,738.84Z" transform="translate(-28.32 -28.12)"/></g><g id="SPLINE-17" data-name="SPLINE"><path class="cls-4" d="M728.62,600c-.23,1.86-.52,3.67-.81,5.3h21.35V637c0,2.91-.75,4.25-2.79,5s-5.41.82-10,.82a21.14,21.14,0,0,0-1.92-4.66c3.32.18,6.87.12,7.86.06s1.34-.29,1.34-1.22V610.25H709.07v32.53h-5.41V605.25h18.91c.18-1.58.46-3.44.64-5.3H700.92v-5.06h22.81c.18-1.92.29-3.79.35-5.41l5.94.58c-.18,1.57-.41,3.2-.64,4.83h22.4V600Z" transform="translate(-28.32 -28.12)"/></g><g id="SPLINE-18" data-name="SPLINE"><path class="cls-4" d="M728.74,632v9.54h-5.12V632h-11.7v-4.37h11.7v-5H713.14v-4.25h5.36a28,28,0,0,0-2.74-6.46l4.25-1.11a29.76,29.76,0,0,1,3,6.64l-3.08.93h9.55a67.26,67.26,0,0,0,2.79-7.74l4.89,1.11c-1,2.27-2,4.59-3,6.63h5.53v4.25h-11v5h12.1V632Z" transform="translate(-28.32 -28.12)"/></g><g id="SPLINE-19" data-name="SPLINE"><path class="cls-4" d="M774,628.17a67.54,67.54,0,0,1-11.53,13.15,27.23,27.23,0,0,0-3.89-3.43c3.72-3.08,8-7.8,10.12-11.58Z" transform="translate(-28.32 -28.12)"/></g><path class="cls-4" d="M766.21,605.6v17.34h15.71v13.9c0,.76-.29,1-1.28,1s-4.66.06-8.09-.05A28.19,28.19,0,0,1,774.3,643c4.88,0,8.26,0,10.47-.81s2.85-2.27,2.85-5.24v-14h15.77V605.6Zm31.48,12.68H771.56v-8h26.13Z" transform="translate(-28.32 -28.12)"/><g id="SPLINE-20" data-name="SPLINE"><path class="cls-4" d="M799.14,626.19c3.61,3.67,8.32,8.79,10.53,12.11l-4.77,3.14a91.61,91.61,0,0,0-10.24-12.51Z" transform="translate(-28.32 -28.12)"/></g><g id="SPLINE-21" data-name="SPLINE"><path class="cls-4" d="M204.73,607.19V602.9c4-.39,6.85-1,8.44-2s2.78-3.1,3.57-6.54h4.41v44.27h-6V607.19Z" transform="translate(-28.32 -28.12)"/></g><path class="cls-4" d="M255.34,602.9q-3.69-8.76-13.41-8.75-7.2,0-10.9,4.59a16.47,16.47,0,0,0-3.69,10.63,14.5,14.5,0,0,0,3.74,10.3q3.73,4,10.17,4a14.59,14.59,0,0,0,5.91-1.2,10.28,10.28,0,0,0,4.61-4.14q-1.19,10.21-4,13.55a8.66,8.66,0,0,1-6.82,3.34,7.79,7.79,0,0,1-3.85-.94c-2.22-1.17-3.41-3.31-3.57-6.39h-5.65a11.66,11.66,0,0,0,3.38,8.57q3.39,3.4,9.9,3.41,9.72,0,13.79-10.48a39.77,39.77,0,0,0,2.45-14.46A30.87,30.87,0,0,0,255.34,602.9Zm-7.28,13.68a9.54,9.54,0,0,1-6.07,2.18c-3.08,0-5.33-.85-6.73-2.55a10.52,10.52,0,0,1-2.12-6.9,10.74,10.74,0,0,1,2.41-7.33,8.19,8.19,0,0,1,6.5-2.74,8.65,8.65,0,0,1,6.29,2.4c1.64,1.6,2.47,4,2.47,7.3C250.81,612.58,249.89,615.12,248.06,616.58Z" transform="translate(-28.32 -28.12)"/><path class="cls-4" d="M288.8,601.21q-3.84-7.11-12.48-7.11-9.58,0-13.25,10.12a38.29,38.29,0,0,0-2,13q0,9.78,3.26,15.59a12.82,12.82,0,0,0,11.92,7q8.88,0,12.79-8.51,2.7-5.93,2.7-15Q291.78,606.7,288.8,601.21Zm-5.62,29.61a8,8,0,0,1-6.94,3.85q-5.4,0-7.64-6.3a33.41,33.41,0,0,1-1.47-10.93q0-9,2.29-13.67a7.56,7.56,0,0,1,7.23-4.64,7.08,7.08,0,0,1,7.24,4.89,35.17,35.17,0,0,1,1.87,12.46Q285.76,627,283.18,630.82Z" transform="translate(-28.32 -28.12)"/><g id="SPLINE-22" data-name="SPLINE"><path class="cls-4" d="M296.51,628.67q2.07-4.26,8.06-7.73l6-3.45a27.94,27.94,0,0,0,5.62-4,8.7,8.7,0,0,0,.21-12.08,8.48,8.48,0,0,0-6.2-2.29q-5.75,0-8,4.36a15.58,15.58,0,0,0-1.3,6.48h-5.68a19.88,19.88,0,0,1,2.14-9.47q3.63-6.45,12.82-6.46,7.63,0,11.16,4.13a13.86,13.86,0,0,1,3.52,9.19,12.49,12.49,0,0,1-3.76,9.13,36.64,36.64,0,0,1-7.79,5.34l-4.25,2.35a27.88,27.88,0,0,0-4.78,3.2,11.66,11.66,0,0,0-3.91,6h24.27v5.28H294.14A25.85,25.85,0,0,1,296.51,628.67Z" transform="translate(-28.32 -28.12)"/></g><g id="SPLINE-23" data-name="SPLINE"><path class="cls-4" d="M809.79,596.4v5.3H759.28v-5.3h23.16c-.93-1.86-2-4-3.08-5.7l5.23-1.69a50.35,50.35,0,0,1,4.25,7.39Z" transform="translate(-28.32 -28.12)"/></g><path class="cls-4" d="M358.77,885.24A5.52,5.52,0,0,0,352,882.8a17.49,17.49,0,0,1-5.05.69,11.5,11.5,0,0,1-3.4-.79c-3-1-6-1.92-9-2.94-3.81-1.3-7.6-2.68-11.42-4-2.16-.73-4.38-1.32-6.57-2-.06-.32-.13-.65-.19-1,1.59-1.69,3.14-3.41,4.79-5,1-1,2.15-1.8,3.2-2.74,1.77-1.59,4.57-2.47,4-5.71,0-.15.19-.34.25-.52.72-2.17,1.45-4.32-.41-6.35-1.12-1.22-2.06-2.61-3.21-3.79a1.74,1.74,0,0,0-1.67-.17c-.58.49-1.34,1.43-1.21,2a6.83,6.83,0,0,1-1.58,5.63c-2.74,3.78-5.86,7.28-8.88,10.84a21.46,21.46,0,0,1-2.22,1.76c-1,.94-2.43,1.78-2.88,3a14.27,14.27,0,0,0-.4,5c0,1.56,3.25,4,4.61,3.3,3.13-1.56,6.29-.37,9.19.15,4.5.81,9.21,1.45,13.21,4.11a14.73,14.73,0,0,0,1.84.63c4.86,2.27,9.72,4.52,14.54,6.87,2.92,1.42,5.7,3.14,8.65,4.46,2.33,1,4.07.14,4.48-2.34a6.69,6.69,0,0,0-.82-3.76C361,888.39,359.78,886.87,358.77,885.24Z" transform="translate(-28.32 -28.12)"/><path class="cls-4" d="M387,864.09a6.66,6.66,0,0,0-5.09-5.18c-1.62-.45-2.44.44-3,1.73-.92,2-1.89,3.88-2.71,5.87-.34.84-.78,2.11-.41,2.67a35.31,35.31,0,0,0,3.94,4.24c1.4.13,2.93.32,4.47.39,3.44.15,5-1.89,4.11-5.25A45.19,45.19,0,0,1,387,864.09Z" transform="translate(-28.32 -28.12)"/><path class="cls-4" d="M346.16,868.56a3.39,3.39,0,0,0,5.42.64,66.91,66.91,0,0,1,4.93-4.74,13.15,13.15,0,0,1,2.62-1.36c-.25-1-.23-1.92-.69-2.39a2.71,2.71,0,0,0-2-.34,7.34,7.34,0,0,1-8.09-4.14,1.64,1.64,0,0,0-1.5-.55c-3.17,1.17-5.35,5.36-3.12,8.53C344.65,865.56,345.31,867.13,346.16,868.56Z" transform="translate(-28.32 -28.12)"/><path class="cls-4" d="M455.4,881.5a45.91,45.91,0,0,0,2.43-5,2.27,2.27,0,0,0-.4-1.82c-1-1.31-2.28-2.39-3.07-3.78-1-1.82-2.69-2.2-4.41-2.25a3,3,0,0,0-2.44,1.22c-.32.77.29,1.91.43,2.9.18,1.23.76,2.66.34,3.67a33.4,33.4,0,0,1-3.54,6c-1.29,1.85-2.79,3.54-4.23,5.28-.83,1-1.72,2-2.59,3l-.77-.36c.76-2.53,0-4.57-1.63-6.49a3.44,3.44,0,0,1-.37-2.26c.34-3.5.91-7,1.14-10.49.37-5.77-4.14-8.14-9.11-7.45a4.94,4.94,0,0,0-1.46.78,13.52,13.52,0,0,0,.82,1.3c.63.78,1.83,1.48,1.9,2.29.36,4.46.93,9,.46,13.41a11.45,11.45,0,0,1-3.77,7.32c-1.64,1.24-3.78,3.54-6.72,2.57a2.54,2.54,0,0,0-2.19.54c-1.22,1.28-2.69.83-4.1,1.07-2.42.41-5-.23-7.27,1.48a4.12,4.12,0,0,1-4.56.57,2.75,2.75,0,0,0-2.46,1,60.18,60.18,0,0,0-3.16,7.66,2.7,2.7,0,0,0,.41,2.41c.52.41,1.69.2,2.51,0a3.22,3.22,0,0,0,1.69-1.16,2.08,2.08,0,0,1,2.91-.69,2.38,2.38,0,0,0,2.8-.59c1.31-1.16,3.09-2.47,4.69-2.49,3.39,0,5.42-2.14,7.58-4,2.41-2.11,5-2.67,6.72-1-1,1.35-2,2.68-2.92,4-1.87,2.64-4.1,5-6.07,7.53a31.07,31.07,0,0,1-11.84,9.26c-.85.39-1.06,2.21-1.56,3.36.84.21,1.86.82,2.5.55a36.46,36.46,0,0,0,7.65-3.82c2.52-1.86,4.54-4.4,6.82-6.6,1.59-1.54,3.23-3,4.91-4.47.38-.33,1.24-.6,1.55-.4a2,2,0,0,1,.6,1.57c-.18,2.48-.44,5-.75,7.43-.35,2.81-.77,5.61-1.22,8.4a1.77,1.77,0,0,1-.7,1.2c-1.83.89-3.72,1.67-6.06,2.69a8.33,8.33,0,0,0,.93,3A34.64,34.64,0,0,0,422,934c.93.87,4.95.62,5.52-.44,1.18-2.18,2.57-4.39,3.1-6.75.84-3.82,1-7.77,1.54-11.66a11.84,11.84,0,0,1,.47-2c1-3.13,2.57-6.19,2.9-9.38a6.61,6.61,0,0,1,3.47-5.51,34.14,34.14,0,0,0,9-6.42,32.87,32.87,0,0,0,3.84-4.56A63.46,63.46,0,0,0,455.4,881.5Z" transform="translate(-28.32 -28.12)"/><path class="cls-4" d="M480.66,887.47a12,12,0,0,0-7.87-4.23c-.49.24-1.44.68-2.37,1.15a7.88,7.88,0,0,1-1.66.89c-2.91.64-5.85,1.18-8.77,1.79a17,17,0,0,0-3.86,1c-1.2.58-1.33,1.54-.33,2.72a5,5,0,0,0,4.06,1.74c3.39.07,6.78,0,10.17.17,2.25.1,4.5.45,6.74.69,1.88.2,3.82-.14,4.51-1.9A4.61,4.61,0,0,0,480.66,887.47Z" transform="translate(-28.32 -28.12)"/><path class="cls-4" d="M462.3,903.56c-1.74-.67-3.48-1.38-5.26-1.91-3.11-.91-4.42-.15-5.68,3.25,1,.83,2.06,1.77,3.2,2.58,2.36,1.67,2.54,3.33.92,5.81a6.27,6.27,0,0,0-.54,3.21,1.1,1.1,0,0,0,1.79,1c3.32-2.11,6.66-4.25,8.17-8.17A4.43,4.43,0,0,0,462.3,903.56Z" transform="translate(-28.32 -28.12)"/><path class="cls-4" d="M460.23,930.31c-2.92-1-5-2.94-7-5.09-1.41-1.5-3.9-.94-3.94,1a13.77,13.77,0,0,0,1.5,5.87c.67,1.42,2.38,2.34,3.07,3.75,1.33,2.72,1.82,3.23,4.34,2.8,3.36-.57,4.05-1.26,4.21-4.16C462.59,931.81,462.46,931.07,460.23,930.31Z" transform="translate(-28.32 -28.12)"/><g id="SPLINE-24" data-name="SPLINE"><path class="cls-4" d="M580.37,909.83c2.76-.85,5.12-1.88,7.57-2.22a7.34,7.34,0,0,1,4.68,1.08c1.94,1.29,1.61,3.65-.56,4.76a32.07,32.07,0,0,1-6.1,2.24c-5.2,1.4-5.23,2.41-6,6.58-.39,2.09-1.28,4.09-1.87,6.16-.29,1.05-.42,2.15-.63,3.23l.61.64c2.25-.61,4.66-.89,6.73-1.88a29,29,0,0,1,13.83-2.37c1.48.05,3.14,1.21,4.27,2.31.63.62.87,2.74.38,3.19a6.6,6.6,0,0,1-4.18,1.88c-5.91-.33-11.73-.63-17.51,1.18-2,.62-4.25.34-6.32.76-1.74.36-3.73.74-5,1.83-2.31,2-5.2,1.91-7.78,2.85-3.37,1.23-6.72,3.32-10.32,2.78-2.28-.33-4.46-2.15-6.39-3.66a1.6,1.6,0,0,1,.78-2.82c.56-.16.94-.87,1.5-1.11s1.5-.65,2-.42c3.5,1.57,6.95,1,10.42,0a50.78,50.78,0,0,0,7.14-2.29,4.25,4.25,0,0,0,2-3,29.7,29.7,0,0,0-.45-5.92c-.2-2-1.6-3-3.35-2.12a9.83,9.83,0,0,1-6.58.84c-2.28-.43-4.88-.51-6.55-2.61-1-1.32-.5-2.43,1.17-2.83,4.74-1.13,9.48-2.25,14.15-3.6a3.12,3.12,0,0,0,2.55-3c.09-2.6.59-5.17.73-7.77a2.85,2.85,0,0,1,3.83-2.75c2.71.77,3.22,3.23,4.2,5.31C579.71,907.91,580,908.84,580.37,909.83Z" transform="translate(-28.32 -28.12)"/></g><g id="SPLINE-25" data-name="SPLINE"><path class="cls-4" d="M555.28,897.22l11.6-1.67.32.84a42.61,42.61,0,0,1-4.94,3.17c-2.2,1-4.6,1.64-6.84,2.58s-4.18,2.17-6.37,2.94c-1.5.52-3.76,1.19-4.69.49a7.6,7.6,0,0,1-3-7c.08-.64,1.06-1.41,1.79-1.68a13.2,13.2,0,0,0,6.15-3.89c1.29-1.58,3.15-2.69,4.65-4.12a61.3,61.3,0,0,0,4.2-4.48c.33-.4.52-1.53.36-1.63a4.19,4.19,0,0,0-2.36-.77c-3.15.42-6.29.72-9.29-.59a11,11,0,0,1-3.08-2.15c-1-.93-.16-2.83,1.33-3.13,4.48-.91,9-1.71,13.45-2.65,3.27-.69,6.51-1.54,9.76-2.31.13,0,.32,0,.4-.12,3-3.58,7.74-3.39,11.58-5.12,2.55-1.15,5.83-1.08,8.73-.86a3.58,3.58,0,0,1,2.81,3.58c0,1.66-1.3,1.57-2.15,2.28-2.55,2.12-5.55,1.55-8.39,2.08a93.74,93.74,0,0,0-9.89,2.76c-.31.09-.59.72-.65,1.13a6.75,6.75,0,0,0,.07,1.9c.6,4.14-2.24,6-5.08,8-2.13,1.48-4,3.25-6.07,4.89a2.76,2.76,0,0,1-.87.58C556.29,892.83,555.52,894.69,555.28,897.22Z" transform="translate(-28.32 -28.12)"/></g><g id="SPLINE-26" data-name="SPLINE"><path class="cls-4" d="M598,895c-.27.54-.51,1.9-1.18,2.16a4.69,4.69,0,0,1-3.53,0c-4.51-2.42-9.12-4.36-14.29-4.73a4.82,4.82,0,0,1-1.38-.54c.25-.52.38-1.2.78-1.54,2.55-2.16,5.58-2.17,8.68-1.83a17.89,17.89,0,0,0,2.92.18,8.38,8.38,0,0,1,7.39,4.16A14.35,14.35,0,0,1,598,895Z" transform="translate(-28.32 -28.12)"/></g><g id="SPLINE-27" data-name="SPLINE"><path class="cls-4" d="M699.84,875.28c-.19,4.19-1.32,4.85-6,5.39-5,.58-9.84,1.84-14.82,2.82.19-.77-.8-2.19,1.15-3.11,1.26-.6,2.21-1.84,3.36-2.71,1.3-1,2.39-2.43,4.45-1.85a2.49,2.49,0,0,0,2.08-.7c3-3.38,6.14-3,9.46-.63Z" transform="translate(-28.32 -28.12)"/></g><g id="SPLINE-28" data-name="SPLINE"><path class="cls-4" d="M647.87,896.23a17,17,0,0,1-3.78-.79,3.85,3.85,0,0,1-1.68-2.15c-.13-.4.61-1.25,1.13-1.67a2.66,2.66,0,0,1,1.78-.61c4.1.54,6.06-3.34,9.32-4.59.61-.23.47-3,.28-4.48a2.5,2.5,0,0,0-1.9-1.53,9.06,9.06,0,0,0-3.62,1c-1.85.9-3.54,2.16-5.42,3-.44.19-1.4-.81-2.12-1.26.52-.78.87-2,1.57-2.26,3.75-1.34,5.73-4.77,8.69-7a2.17,2.17,0,0,0-.25-1.94c-.87-.41-2.22-.84-2.88-.44a28.74,28.74,0,0,0-3.86,3.41c-2.12,1.87-3.76,2-6.06.44-.86-.59-1.28-1.32-.07-2.14,3.42-2.31,6.92-4.53,10.17-7.05,2.17-1.68,3.77-4.13,6-5.69,2.49-1.74,3.44-5.28,6.92-5.78.69-.1,1.36-.32,2-.46,2.26-.47,3.14,0,3.58,1.93s-.38,3.08-2.22,3.93a28.31,28.31,0,0,0-4.15,2.92c-.49.34-1,.62-1.53.92s-1.38.58-1.37.86a4,4,0,0,0,.69,2.29c.24.3,1.29.22,1.82,0a32.46,32.46,0,0,0,4.55-2.51c1.57-1.09,3.39-1.3,4.14-.22s-.2,3.16-1.58,4.06c-1.8,1.17-3.68,2.26-5.36,3.59-2.38,1.87-2.39,4.81-.27,7,1.07,1.09,1.17,2.13.16,3.51-1.52,2.08-3.16,3.77-5.78,4.37-.53.12-.88,1-1.35,1.44-1.64,1.61-3.32,3.16-4.92,4.8C649.63,894,648.84,895.06,647.87,896.23Z" transform="translate(-28.32 -28.12)"/></g><g id="SPLINE-29" data-name="SPLINE"><path class="cls-4" d="M687.44,909.08c-3.29,1.76-6.78,3.7-10.34,5.49a30.61,30.61,0,0,1-3.45,1,10.18,10.18,0,0,0-3,1.45c-2.47,2-2.22,1.56-4.88-.45-1.38-1-2.11-2.9-3.4-4.1-1.76-1.65-2.94-4.15-6-4.18-.78,0-1.55-1.07-2.33-1.65a8.77,8.77,0,0,1,1.84-1.77,7,7,0,0,1,7.9,1.63c1.56,1.72,3.07,3.48,4.76,5.06,1.11,1,2.41,1.78,4,.61,2.31-1.67,4.75-3.15,7-4.84.52-.38,1.09-1.53.88-1.93-1-1.89-.4-3.78-.32-5.67,0-.25-.2-.52-.48-1.21l-6.5,2.63c-1-1.41-1.66-2.66.39-3.78a4.75,4.75,0,0,0,1.51-1.66c2.49-4.06,6.42-4.26,10.5-4,2,.14,3.07,1.14,2.94,3.33a14.27,14.27,0,0,1-1.14,6C686.47,903,687.36,905.9,687.44,909.08Z" transform="translate(-28.32 -28.12)"/></g><g id="SPLINE-30" data-name="SPLINE"><path class="cls-4" d="M650.48,905.58c-1.57.3-2.69.43-3.76.72a14.65,14.65,0,0,0-3.8,1.34,56.77,56.77,0,0,0-6.72,4.78c-1.4,1.19-2.21,3.09-3.65,4.19-2.88,2.22-5.88,4.41-9.92,2.45-1.27-.61-1.64-1.21-.9-2.35,1.14-1.78,2.66-2.92,4.91-2.69a2.83,2.83,0,0,0,3.05-1.62c.63-1,2.29-2.25,3.33-2.12,3,.37,5.11-1.51,6.38-3.09,1.76-2.19,4.44-2.85,6.07-4.91.93-1.17,1.84-2.35,2.79-3.5a12.23,12.23,0,0,1,6.37-4.5c1.28-.33,2.45-1.12,3.74-1.42a9.64,9.64,0,0,1,2.76.17,11.15,11.15,0,0,1-.32,2.48,8.21,8.21,0,0,1-6.9,5.65,2.28,2.28,0,0,0-2.18,2.32C651.62,904.29,650.83,905,650.48,905.58Z" transform="translate(-28.32 -28.12)"/></g><g id="SPLINE-31" data-name="SPLINE"><path class="cls-4" d="M668.41,892.94c-1.53-1.78-.15-3.59.09-5.3s1.09-3.31,1.45-5c.42-1.91-.65-2.81-2.62-2.54a4.76,4.76,0,0,1-2.26-.13c-1.07-.42-1.62-1.27-.59-2.29,1.19-1.17,2.46-2.25,3.69-3.38a19.66,19.66,0,0,0,3.42-3.26,8.21,8.21,0,0,1,4.6-3.16,2.35,2.35,0,0,1,3.19,1.17,2.71,2.71,0,0,1-.76,3.76c-1.24.9-2.57,1.69-3.88,2.48s-2.44,1.31-3.6,2.05a1.46,1.46,0,0,0-.62,1.14,1.85,1.85,0,0,0,1,1.2c3.6.92,4,1.17,3.51,4.82a11.56,11.56,0,0,1-2.6,5A26.72,26.72,0,0,1,668.41,892.94Z" transform="translate(-28.32 -28.12)"/></g><g id="SPLINE-32" data-name="SPLINE"><path class="cls-4" d="M666.3,841.9c.44,2-.62,5.71-2.13,6.77-1.67,1.18-3.61,2-4,4.45-.11.63-1.84,1.5-2.67,1.35a2.46,2.46,0,0,1-1.87-3.38c1.51-3.94-.64-7.32-1.24-10.93-.13-.77-.25-2.12.07-2.28,1.13-.55,2.66-1.25,3.66-.87,1.74.65,3.19,1.9,5.19,2.29C664.4,839.52,665.3,841,666.3,841.9Z" transform="translate(-28.32 -28.12)"/></g><g id="SPLINE-33" data-name="SPLINE"><path class="cls-4" d="M644.35,851.32c2.7,3.48,2.26,7.81-1,10.29a3.9,3.9,0,0,1-4.88-.58c-1.13-1.29-2.39-2.46-3.51-3.75-.37-.42-.8-1.36-.62-1.57.4-.47,1.35-1.05,1.75-.87,3.53,1.6,5.53-.13,7.15-3C643.44,851.56,644,851.49,644.35,851.32Z" transform="translate(-28.32 -28.12)"/></g><g id="LWPOLYLINE-2" data-name="LWPOLYLINE"><polygon class="cls-4" points="483.89 451.45 394.78 483.89 572.99 483.89 483.89 451.45"/></g><g id="LWPOLYLINE-3" data-name="LWPOLYLINE"><polygon class="cls-4" points="529.42 626 529.42 655.55 495.76 655.55 495.76 626 472.01 626 472.01 655.55 438.35 655.55 438.35 626 414.6 626 414.6 655.55 395.23 655.55 395.23 613.04 572.54 613.04 572.54 655.55 553.17 655.55 553.17 626 529.42 626"/></g><g id="LWPOLYLINE-4" data-name="LWPOLYLINE"><rect class="cls-4" x="395.23" y="491.56" width="177.32" height="15.11"/></g><path class="cls-4" d="M600.86,603.27V542.46H423.54v60.81h-8.05v7.44H608.92v-7.44Zm-123.53-.1H442.22V554.83h35.11Zm52.43,0H494.65V554.83h35.11Zm52.43,0H547.07V554.83h35.12Z" transform="translate(-28.32 -28.12)"/><path class="cls-4" d="M512.2,28.12C245,28.12,28.32,244.76,28.32,512S245,995.89,512.2,995.89,996.09,779.25,996.09,512,779.45,28.12,512.2,28.12Zm0,949.61C255,977.73,46.48,769.21,46.48,512S255,46.28,512.2,46.28,977.93,254.79,977.93,512,769.41,977.73,512.2,977.73Z" transform="translate(-28.32 -28.12)"/><text x="-28.32" y="-28.12"/><path class="cls-5" d="M662.23,311c-.88,0-2.51,2.39-2.79,2.93s-.53,1.14-.75,1.59c-.4.85-.78,1.61-1.17,2.43-.48,1-1.27,2-1.72,2.93-.83,1.82-.07,3.07,2,3.12s3.73-1.77,4.53-3.43a4.43,4.43,0,0,0,.2-.45,7.17,7.17,0,0,0,.51-3.85C662.89,314.58,661.77,313.55,662.23,311Z" transform="translate(-28.32 -28.12)"/><path class="cls-5" d="M708.81,306.85a5.11,5.11,0,0,0-.92-1.25,5.31,5.31,0,0,0-3.43-1.59,28.26,28.26,0,0,0-4.23-.09,20.92,20.92,0,0,1-2.11,0s.7-6.12.74-6.57c.08-.91,0-1.77.14-2.69.28-2.28.48-4.56.63-6.86,0-.71-.1-1.38,0-2.08a13.52,13.52,0,0,0,.1-1.9,4.15,4.15,0,0,0-1.75-3.11c-1.32-1.06-3.3-.2-5,.46a13.19,13.19,0,0,0-5.69,4.68,13.07,13.07,0,0,1-2.32,2.75c-1.28,1-1.56-.72-1.48-1.58.11-1.26,0-2.73.21-4.18a7,7,0,0,1,.5-2.26c.52-.75,2.59-1.5,3.31-1.75s1.31-.78,2-1,2.26-.31,2.84-.84c1.28-1.16-4.26-2.13-4.26-1a8.55,8.55,0,0,0-1.43.92c-.5.3-1.12.64-1.67.92-.25-.79.25-1.78.17-2.59a2.86,2.86,0,0,0-.42-1.47c-1.06-1.66-2.58-.71-3.43-.71,0,.41.93.36,0,.33,1.36.69.34,3.74.21,4.9a18.37,18.37,0,0,0-.17,2.64c0,.83-.29,2-.38,2.92s0,2.73,0,4a5.53,5.53,0,0,0,.21,2.34c.59.95,1.5,1.41,1.17,2.76-.88,3.64-2.35,7.43-1.58,11.21a5.74,5.74,0,0,0,.5,1.73c.2.32,1,.78.84,1.2s-.81.17-1.1.21c-.89.14-1.57.48-2.51.71a24.44,24.44,0,0,0,.39-3.94c0-.63.73-4.86-.45-4.42,0,.5-.09,2.25-.85,2.26a34.26,34.26,0,0,1-2-4.79,6.6,6.6,0,0,1,.29-5.21c.5-.88,1.31-1.89,1-3-.11-.43-.95-1.83-1.52-1.79-.89.07-1.13,2.2-1.28,2.88a32.71,32.71,0,0,0-.61,9.87,30,30,0,0,0,.81,4.79c.07.28,1.21,4.34,1.14,4.33s-.12-.07-.08-.17a13.79,13.79,0,0,0-3.1,1.09c0-.51.43-1,.5-1.55a15.85,15.85,0,0,0-.29-2.47c-.14-2.1-.36-5.06-.46-7.82-.08-2.27-1.59-3.43-3.51-4.39-.39-.2-1.34-.87-1.76-.59s0,1.34-.33,1.34c.65,1.1,1.22,1.58,1.42,2.68.11.61.4,1.88.5,2.68.28,2.28.42,5,.71,7.11.21,1.53.49,2.57.8,4.1-.47,0-1,1.09-1.76.83,0,.19-.09,0-.09.17a15.77,15.77,0,0,0,6.11-.25c.85-.16,1.88-.83,2.59-.33.19.14.76,1.44,1,1.5.92.21.48-2,.75-2.42.43-.67,1.91-.81,2.6-1s1.22-.22,1.83-.32c.8-.12.93.05,1.63.42a.54.54,0,0,0,.28.08c.14,0,.24-.16.32-.28.38-.63.44-.71,1.15-.88s1.61-.35,2.42-.46c.42-.06.87-.06,1.28-.15a1.92,1.92,0,0,1,.82-.14c.9.22.44,1.75.64,2.42a3.4,3.4,0,0,0,1.86,2.08c.94.34,1.89-.44,2.36-1.21a9.53,9.53,0,0,0,1-2.63,11.51,11.51,0,0,0,.64-2c1.37.2,2.8-.24,4.18-.18a6.15,6.15,0,0,1,1.42,0c1.3.32.64.21.26.83a15.69,15.69,0,0,1-1.93,2.1,31.12,31.12,0,0,1-3.73,3.71c-.68.54-1.38,1.05-2.06,1.59-.36.29-.72.58-1.06.89s-.54.83-.71.93c-.45.29-1.22-.22-1.94-.17a9.69,9.69,0,0,0-2.46.74,36.18,36.18,0,0,0-6.28,2.93c-1.11.62-3,2.34-2.13,3.89,1,1.75,2,0,3-.55a11.76,11.76,0,0,1,2.09-.92c.7-.26,2.28-1.34,3.1-1.34-.48,2.83-2.75,4.6-3.77,7a3.52,3.52,0,0,0,.36,3.24c.59.87,1.78,1.91,1.15,3.09s-2.2,1.09-3.35,1.29a15.24,15.24,0,0,0-4.69,1.25c-4.85,3.05-2.09,11.16,3.1,12.13a8.5,8.5,0,0,0,7-2,11.36,11.36,0,0,0,3.15-4.47,15.52,15.52,0,0,0,.84-3.76c0-.44-.07-.85.22-1.19.47-.53,1.51-.52,2.15-.5a25.14,25.14,0,0,1,4.58.39c1.84.4,3.5,1.42,5.35,1.8a.42.42,0,0,0,.25,0c.17-.09.11-.34,0-.5-.3-.62-.55-1.23-.86-1.85a5.65,5.65,0,0,0-1.55-2.42c-1.12-.76-2.73-.61-4-.54-1.55.07-3.14-.23-4.69,0-.92.12-1.4-.06-1.52-1.14-.1-.83.18-1.92-.34-2.63s-1.75-.78-2.45-.85c-1.1-.11-2.36-.17-3.18-.17a5.32,5.32,0,0,1,1.67-3.26c.47-.55,2.82-2.76,2.68-3.18.46.15,2.44-2.6,2.51-2.68.26-.34,1.23-1.13,1.28-1.45s-.33-1.56-1-1.56c.26-.94,2-1.45,2.68-1.68,0,.34.39-.05.5,0,1.44,0,3.72-1.25,4.89-1.88,1.48-.79,2.53-1.74,3.89-2.55.78-.46,1.5-1,2.18-1.39C709.22,308.64,709.49,308.23,708.81,306.85ZM686,300.31a9,9,0,0,1-.75,3.22c-.93,1.33-1.75.14-2.32-.69-.85-1.22-.77-2.38-.57-4.18.11-1,.5-6.53,1.74-6.53,0-.63,1,.45,1.17.67a5.69,5.69,0,0,1,.25,1.75c.19,1.45.4,3,.5,4.61A7.55,7.55,0,0,1,686,300.31Zm7.89,8a14.22,14.22,0,0,0-3.27-.84c.33-.65,2.94-.48,3.6-.59C694.23,306.92,694.22,308.36,693.92,308.28Zm1-4.67c0,1-1,1.11-1.74,1.21a29.23,29.23,0,0,0-3.22.68,16.87,16.87,0,0,0-2.69.6,42.38,42.38,0,0,0,1-5.73c.11-1.16.13-2.83.12-4.1,0-.63-.33-2.09,0-2.47-.16.06-.22,0-.16-.17a7.69,7.69,0,0,1,.95-.14,1.17,1.17,0,0,1,.89.29,2.55,2.55,0,0,1,.81,1.77,14.31,14.31,0,0,1-.25,2.6,3.15,3.15,0,0,0,.62,2.47,6.68,6.68,0,0,0,1.88,1.1,4.9,4.9,0,0,0,2.43.82C695.16,302.54,694.89,303.33,694.88,303.61Zm1.3-12.91c-.1,1.06-.19,1.63-.25,2.77-.1,1.52-.41,3-.65,4.52-.06.4,0,1-.4,1.23a1.77,1.77,0,0,1-1.51-.42c-1-1-.13-2.95.49-3.9s1.56-2.25.4-3.26c-1.9-1.65-4.15,1.4-6.28,1.57,0-.15-.43-1.76-.25-1.67-.78,0-1.15-2.19-2.1-2.09.19-1.48,2.43-2.6,3.56-3.35.5-.33,3.22-1.58,3.22-2,1.78-.18,3.42-1.46,4,1.68A21.93,21.93,0,0,1,696.18,290.7ZM688,339.2a10.32,10.32,0,0,1-1.41,4.9,5.7,5.7,0,0,1-2.09,1.9,5.14,5.14,0,0,1-2.55.67,4.88,4.88,0,0,1-2.88-1.19,4.25,4.25,0,0,1-1-4.77,6,6,0,0,1,3.85-2.8,18.69,18.69,0,0,1,3.42-.6,6.69,6.69,0,0,1,2-.17c1.08.21.73.94.62,1.78C688,339,688,339.11,688,339.2Z" transform="translate(-28.32 -28.12)"/><path class="cls-5" d="M348.58,316.81c.4-.3,1.49-.29,1.52-.93,0-.93-3.49-2.11-4.44-2s-2.46,1.21-3.38.66-.57-2.78-.47-3.61a1.11,1.11,0,0,1,1.17-1.1c.9-.08,1.78-.26,2.67-.36.65-.07,1.4-.05,1.74-.75.18-.37-.36-1.73-.59-2-.73-.94-1.19-.25-2.16,0-.81.21-2.05.67-2.37-.22a12.16,12.16,0,0,1-.17-3.62c0-1.22,1.21-1,2.24-1.25,3.14-.64,6.28-1.28,9.45-1.79.76-.12,1.53-.2,2.28-.35.55-.11.83-.25.66.42a17.74,17.74,0,0,1-1.39,2.88,25,25,0,0,1-2.32,3.51,38.25,38.25,0,0,1-3.6,4.57c-.31.32-.91,1.12-1.44,1.26s-1.25-.07-1.8.2c-.87.44.31.85.71,1,1.12.4,2.43,1,3.65.51a14.11,14.11,0,0,0,3.56-2.4,42.63,42.63,0,0,0,5.6-5.56c.83-1,1.62-2,2.35-3.08a4.53,4.53,0,0,1,1-1.11,1.42,1.42,0,0,0,.64-.87c.23-1-.51-1.53-1-2.22s-.57-2.13-1.57-2.72a3.54,3.54,0,0,0-2.31-.21c-.89.16-12.9,2.71-14.53,3.11-1.06.25-1.68.51-1.88-.87a8,8,0,0,1,0-3.41c.27-1,.51-.82,1.42-.84.61,0,1.23,0,1.83-.08,1.19-.14-1.94-3.58-2.16-4-.5-1,0-2.29-.15-3.33a14,14,0,0,1,.33-4.65,8.11,8.11,0,0,0,.12-2.69,3.65,3.65,0,0,0-.4-1.34,3.15,3.15,0,0,0-2.43-1.42,5.54,5.54,0,0,0-.7,0,21.55,21.55,0,0,0-2.77.43c-.85.13-2,.13-2.6.81s.55,1.58,1.06,1.94a3.2,3.2,0,0,1,1,.8,4.78,4.78,0,0,1,.36,1.42,34.93,34.93,0,0,1,.3,7.58c0,1.35-.31,1.37-1.5,1.71a29.74,29.74,0,0,1-8.58,1.35,11.22,11.22,0,0,0-1.57.18c.27.74,1.88,1.68,2.47,2.09a9.49,9.49,0,0,0,2.6,1.21c1.56.48,1.65.35,3.37-.19a9.53,9.53,0,0,1,3.23-.57,36,36,0,0,1,0,3.72c-.08,1.77-.61,1.69-2.28,2.06s-3.09.64-4.63,1c-.92.21-1.67.53-2.7.85a14.15,14.15,0,0,1-4.32,1.1c0,.1,2.33,1.13,2.63,1.27a5.1,5.1,0,0,0,2.36.51,42.74,42.74,0,0,0,4.2-1c.93-.19,3.23-1.31,4.08-1.08,1,.27.58,2.17.5,3a5.7,5.7,0,0,1-.35,2c-.51.79-2.05.8-2.84,1-1.44.46-7.45,1.83-7.45,3.13a14.74,14.74,0,0,0,2.14.38c.45.07.88.2,1.31.29a3.58,3.58,0,0,0,1.82-.28,18.48,18.48,0,0,1,3.22-.7c.8-.12,1.81-.62,2.06.39a6.27,6.27,0,0,1,.05,1.5,11.12,11.12,0,0,1-.29,2.59.27.27,0,0,1-.28.2,8.08,8.08,0,0,0-1.47.06,4.65,4.65,0,0,0-1.62.4,29.47,29.47,0,0,0-2.73,1.42c-.6.32-1.92,1.23-2.48.38a2.24,2.24,0,0,1-.25-1,17.09,17.09,0,0,0-2.17-5.91,8.31,8.31,0,0,0-.73-1.18,5.89,5.89,0,0,0-.74-1.1,3.73,3.73,0,0,0-1.29-.72,13.71,13.71,0,0,0-3.43-.54c-.47,0-2.15-.19-2.12.61,0,.52.68,1,1,1.41a13.18,13.18,0,0,1,1.34,1.89c.51,1,1.18,2.25,1.77,3.24a8.21,8.21,0,0,0,2.32,2.88,4.83,4.83,0,0,0,.86.29,2.59,2.59,0,0,1,.67.38,3.57,3.57,0,0,1,.3.38c.08.1.28.2.29.34s-.42.3-.58.35c-.41.1-.26.52,0,.66a5.75,5.75,0,0,0,3.26-.1l2.3-.48c.67-.14,1.35-.28,2-.48s1.13-.38,1.69-.58,1-.35,1.53-.48a2.89,2.89,0,0,0,.63-.26c.45.82.18,2.19.2,3.1,0,1.29-1.61,2.61-2.37,3.49-1,1.14-2,2.25-3,3.35-2,2.16-4.17,4.23-6.34,6.26-.9.85-1.82,1.66-2.77,2.45l-1.44,1.16a9.81,9.81,0,0,0-1,.87c-.39-.13-.46.24-.13.38.16.07.52-.12.8-.13a7.34,7.34,0,0,0,2.68-.94l2.85-1.41a27.18,27.18,0,0,0,5.17-3.47,46.34,46.34,0,0,0,4.39-3.9c.2-.22.48-.8.74-.38.14.24,0,.68,0,.95,0,.8,0,1.59.07,2.39,0,1.55.1,3.1.08,4.65a13.28,13.28,0,0,1,0,2.45c-.4,1.6-2.9,1-4.06.93a14.51,14.51,0,0,0-3.15-.45c-1,.1.32,1.22.53,1.46a14.77,14.77,0,0,0,5.25,3.47c1.1.46,2.76,1.66,4,1.21a1.49,1.49,0,0,0,.92-1.15c.12-.57.28-1.13.35-1.72.08-.74.19-1.45.22-2.2.1-2.53.19-5,.21-7.58s-.15-4.91-.14-7.37a3.9,3.9,0,0,1,.76-2.93c.62-.71,1.43-1.23,2-1.95.83-1,1.71-2,2.58-2.86A22.39,22.39,0,0,1,348.58,316.81Z" transform="translate(-28.32 -28.12)"/><path class="cls-5" d="M365.57,335.67a4.64,4.64,0,0,0-1.32-2.26c-1.56-1.34-3.71-1.85-5.65-2.45-2.23-.68-4.5-1.25-6.79-1.71-.48-.1-1-.17-1.46-.24s-3.84-.31-3.89-.61c.25,1.5,2.85,3.14,4.15,3.64,1.8.7,3.26,1.6,4.9,2.24.54.21,2.95.84,3.22,1.31,1.09,1.93-3.94,3.64-4.56,5.17a2,2,0,0,0,1.14-.05,30.36,30.36,0,0,0,3.55-.79c2-.73,4.15-1.47,6.13-2.34C366,337.13,365.88,336.66,365.57,335.67Z" transform="translate(-28.32 -28.12)"/><path class="cls-5" d="M398.1,322.09a.61.61,0,0,0,.27,0c.22-.07.53-.51.72-.67.41-.37.82-.74,1.2-1.14,1.06-1.13,2-2.41,3-3.64.35-.46,2.29-2.79.64-2.59a8.19,8.19,0,0,0-4.11,2.05c-.92.79-2.11,1.74-3.39,1.64-.34,0-1.55.11-1.18-.5.62-1,1.52-1.91,2.18-2.9a28.77,28.77,0,0,0,2.07-3.61,42.36,42.36,0,0,0,2.14-5.44c.56-1.87,1-3.78,1.51-5.67.27-1,.36-2,.67-3,.15-.44.13-1.29.53-1.6s1.32-.25,1.9-.36c.8-.15,1.62-.31,2.44-.44A38.34,38.34,0,0,0,414,293c1-.33,2-.7,3-.94.88-.2,1.86-1,1.62-2-.17-.78-1.09-1.12-1.63-1.62-.86-.83-.75-.86-1.52-.25-.22.18-.19.46-.44.72s-.15-.07-.63.17a23.68,23.68,0,0,1-5.54,1.82c-.87.2-2.19.85-3.08.47-1.09-.46-.84-2.76-.66-3.72s1.24-2.07.43-3a.68.68,0,0,0-.43-.17,16.48,16.48,0,0,0-2.33-.15,5.53,5.53,0,0,0-1.46,0c-.41.27-.13,2.07-.12,2.46.05,1,.11,2,.2,3,.05.53.35,1.5-.05,1.95s-2,.53-2.66.64a26.57,26.57,0,0,1-6.36.42c-2-.15-.78,2,.17,2.64a4.86,4.86,0,0,0,2.85.61,28.72,28.72,0,0,0,2.94-.32c1-.11,2.55-.67,2.62.67a15.69,15.69,0,0,1-.76,3.76,27.51,27.51,0,0,1-1.61,5.81,46.16,46.16,0,0,1-3.76,7.26,10.59,10.59,0,0,1-1.16,1.16c-.5.49-.39.77-1.06,1.1-.43.21-1.05-.1-1.59.19-.24.13-.37.36-.58.52.07.22.33.28.55.35a4.63,4.63,0,0,1,1.92,1.46C394.38,319.72,395.81,321.62,398.1,322.09Z" transform="translate(-28.32 -28.12)"/><path class="cls-5" d="M435.55,305a1.05,1.05,0,0,0-.19-.34,13.36,13.36,0,0,0-2.64-2.67c-.9-.63-1.84-.15-2.76.17-2,.71-3.93,1-5.94,1.55l-6.82,1.86c-1.79.49-3.61.8-5.41,1.23a7.72,7.72,0,0,0-3,1.07c-1.34,1.24.68,1.38,1.91,1.64a16.86,16.86,0,0,0,6.85-.24c1.56-.3,11.79-3.51,12.13-1.63a5.71,5.71,0,0,1-.14,1.22c0,.68,0,1.37,0,2.06,0,1.32-.12,2.64-.25,3.95-.25,2.64-.67,5.26-1.18,7.86q-.35,1.71-.72,3.42a30.9,30.9,0,0,1-2,6.55,6.09,6.09,0,0,1-1.39,2,3.72,3.72,0,0,1-2.51.64c-.89.05-1.78.09-2.67.08-.56,0-1.12,0-1.67-.09a4.14,4.14,0,0,0-1.4-.07c-.18,0-.63,0-.7.21s.23.43.35.54c.85.74,1.88,1.23,2.71,2,1.56,1.43,3,3,4.48,4.39.43.42.75,1.18,1.31,1.45,1.76.84,4.32-4.07,5-5.21,3.76-6.82,4.66-15.4,5.61-22.94.42-3.35.35-6.84,1.06-10.13A1.19,1.19,0,0,0,435.55,305Z" transform="translate(-28.32 -28.12)"/><path class="cls-5" d="M408.87,321.29a25,25,0,0,1,5.73-2.24c.32-.1,1.08-.31.91-.79s-1-.42-1.33-.48a7.3,7.3,0,0,0-3,0c-.61.15-1.14.59-1.74.8-.79.26-2.08,1.06-2.9.72-.66-.27-.11-.61.17-.87a8.66,8.66,0,0,0,1.39-1.45c.75-1.19,1.85-2.44,2.41-3.58,1-1.95-2.14-2.46-3.71-2.46-.21-.13,0,.59,0,1.07,0,.82-.59,1.45-.9,2.24a24.46,24.46,0,0,1-2.06,3.94c-.36.62-.89,1.41-1.34,2.15-1,1.73-3.62,2.48-5.47,2.88a7.14,7.14,0,0,0-2.48.58c-1.07.7.21,1.58.9,1.94a5.44,5.44,0,0,0,2.73.64,5.21,5.21,0,0,0,3.36-1.62c.76-.7,1.94-.85,2.35.32a10.38,10.38,0,0,1,.13,3.58c-.63-.21-1.82.69-2.4.94-.94.4-1.85.84-2.81,1.18-1.13.4-2.14,1-3.24,1.44-.85.35-.22.82.34,1.1,1.23.63,3,.31,4.26-.05,1.07-.3,2.06-.85,3.13-1.12a1.06,1.06,0,0,1,.47,0c.64.13.23,1.14.21,1.56,0,.71-.08,1.77-.09,2.33a50.83,50.83,0,0,1-.87,7.4c-.18,1-.42,2-.67,3s.88,1.08,1.56.68c.94-.55,1.25-2.13,1.61-3.09a43,43,0,0,0,1.36-4.11,26,26,0,0,0,1.08-8.17c-.06-1.11-.42-2.11.94-2.49.91-.25,1.79-.62,2.69-.92a6.36,6.36,0,0,1,.66-.19,3.13,3.13,0,0,0,.74-.21c1.4-.79-1-2.25-1.71-2.36-1.08-.17-1.66.48-2.49,1-1,.63-1,.59-1.13-.45C407.42,324.4,407.18,322.33,408.87,321.29Z" transform="translate(-28.32 -28.12)"/><path class="cls-5" d="M387,327.76a29.39,29.39,0,0,1-.28-4.3c0-1,0-2.07,0-3.1a5.52,5.52,0,0,0-.12-2.33,2.67,2.67,0,0,0-.76-.81,9.72,9.72,0,0,1-.93-1.09c-.29-.32-.62-.61-.88-.94a.87.87,0,0,0-.51-.35.45.45,0,0,0-.28.08c-.18.13-.15.4-.1.62a6.39,6.39,0,0,1,0,1.45,19,19,0,0,1-.21,2.92c-.27,1.51-.65,3-1,4.49-.09.36-.18.72-.26,1.08a8.77,8.77,0,0,0,.78,6.64c.75,1.29,2.21,3.59,3.81,3.86,2.81.46,1.87-4,1.38-5.41A18,18,0,0,1,387,327.76Z" transform="translate(-28.32 -28.12)"/><path class="cls-5" d="M627.06,314.09c1.82-.77,3.65-1.64,5.54-2.27a10.72,10.72,0,0,1,2.37-.54c.59-.06,1.55.21,2-.19,1.4-1.29-1.06-4.87-1.9-5.87-1.14-1.36-1.9-.92-3.22-.08-1.07.67-2.09,1.44-3.23,2-1.67.84-3.41,1.51-5.15,2.2a25.62,25.62,0,0,1-3.52,1.1c-1.05.27-2.1.49-3.16.7-1.85.37-2.57.79-2.79-1.35-.28-2.73-.31-5.47-.33-8.21l0-3.25c0-2.68-.27-5.37-.26-8a9.78,9.78,0,0,1,.26-1.79c.33-1.5.93-1.64-.63-2.44-1.19-.61-1.9-.23-3,.23a37.87,37.87,0,0,0-.1,4.62c-.1,2.75.34,5.48.08,8.18-.29,3.12-.08,6.31-.22,9.44-.05,1.05.34,2.81-.4,3.7s-2.1.43-3,.52a31.87,31.87,0,0,1-4.37.16c-1.47,0-2.92.29-4.4.3-.22,0-.43,0-.64,0l.17.62a22.31,22.31,0,0,0,5,2.55,30.44,30.44,0,0,0,5.62,1.42c.52.08,1.34,0,1.6.57s-.17,1.38-.31,2c-.39,1.86-.76,3.73-1.31,5.56-.48,1.58-1,3.14-1.61,4.68a21.63,21.63,0,0,1-2.53,4,13.85,13.85,0,0,1-8.37,6.07,1.53,1.53,0,0,0-.92.46.94.94,0,0,0,0,1,1.88,1.88,0,0,0,.81.69,7.06,7.06,0,0,0,2,.52c3.56.56,7.92,1.48,10.92-1.11a8.07,8.07,0,0,0,2.13-2.62,104.71,104.71,0,0,0,2.69-15.83c.12-1.33.2-2.67.28-4,0-.43-.09-1.2.3-1.5s1.47-.13,2-.13a13.57,13.57,0,0,0,5.87-1.38,25.08,25.08,0,0,1,2.42-1.24C624.82,315.12,625.94,314.57,627.06,314.09Z" transform="translate(-28.32 -28.12)"/><path class="cls-5" d="M635.52,336.54c-.48-.73-1-1.39-1.43-2a17.34,17.34,0,0,0-8.78-6.2,18.38,18.38,0,0,1-2.81-.59s1,.56.34.55c.5.89,1.21,1.67,1.77,2.53s1.27,2,1.87,3a22.87,22.87,0,0,1,2,4.28,21.65,21.65,0,0,0,1.29,4,5.46,5.46,0,0,0,4,2.59c1.12.13,3.71,1.09,4.18-.64a8.7,8.7,0,0,0-.42-3.56A14,14,0,0,0,635.52,336.54Z" transform="translate(-28.32 -28.12)"/><path class="cls-5" d="M595.8,314.32a1.11,1.11,0,0,0-.32-1.74,5.23,5.23,0,0,0-2-.67,1.34,1.34,0,0,0-1.32.49c-.18.22-.22.45-.45.6s-.62.09-.7.39.11.37.27.48a3.79,3.79,0,0,0,1.78.45,8.07,8.07,0,0,0,1.48.09C594.87,314.39,595.51,314.57,595.8,314.32Z" transform="translate(-28.32 -28.12)"/><path d="M557.58,275.4c1,7.32.77,15.18,8.13,20l-8.63,6.82c7.17,5.64,15.09-5.54,19.79,1.41v27.67L559.28,324l-1.87,2.85,8.51,7.81c-8.18,5.24-7.06,14.74-8.34,23.38h-2.51c-1.14-8.49-.08-17.78-8.63-23.44l9.15-7.56c-8.41-5.9-12.13,3.87-18.72,3.51V302.25l17.34,2.1,1-2.2-8.07-6.79c7.12-4.42,7.1-12.37,8-20Zm-2,31.15c-9.58-1.91-10.15-1.41-8.73,7.49Zm10.29,7.76c1.19-9.25.41-9.88-8.63-7.54ZM553.23,323l1.48-1.51-7.26-6.08L546,316.56c.11,2.12.22,4.24.34,6.48Zm13.48-.23c-.12-2.58-.2-4.54-.37-8.39l-8.34,7,.83,1.38Z" transform="translate(-28.32 -28.12)"/><path d="M503.67,303.92c0,5.7.06,9.62,0,13.54-.11,5.8-3.6,7.93-8.85,5.17-4.33-2.28-5.68-.68-5.67,3.55,0,2.5-.15,5-.07,7.49.18,5.43-2.05,9.11-8.27,11.23V321.1l-14.28,3V302.24l15.19,2.25c.21-2.8.38-5,.61-8-5,0-10.23-.45-15.26.24-1.78.25-4.23,3.13-4.53,5.09-.69,4.49-.21,9.14-.27,13.73-.14,11-5.43,18.44-16.72,23.52,9.81-14.51,8.43-28.92,6.23-40.61l7.05-8.35c1.34,3.77,6.09,4.58,11.71,4.48,12.93-.25,25.87-.23,38.81,0,5.48.08,10-.81,11.35-7l8,8.35a19.1,19.1,0,0,0-3.75,2.57,6.78,6.78,0,0,0-1.82,5.09c.84-.42,1.7-.81,2.53-1.26s1.77-1,3.34-2l5.15,7.15c-.91.84-1.22,1.35-1.48,1.33-7.38-.68-8.44,3.49-8,9.58a81.19,81.19,0,0,1,0,16.86c-.43,3.37-2.85,6.49-4.37,9.72l-2.47-.78c0-10.08-.19-20.17.08-30.24.15-5.63-.08-10.27-7.72-9.53l9.74-.73c-.16-5.27-3.33-7-7.65-7.13-8.12-.17-16.25-.05-24.51-.05v8c3.13-.7,6-1.78,8.9-1.86C499.25,302.58,501.91,303.57,503.67,303.92Zm-13.24,7.95,0,1.86c-4,0-8.05-.2-12,.12-1.21.1-2.31,1.62-3.47,2.49,1.13,1.11,2.14,3,3.42,3.2,3.05.49,6.27-.08,9.36.28,5.78.69,7.53-1.65,7.45-7.34-.08-5.31-1.4-7.8-7.09-7.11-3.29.4-6.72-.21-10,.29-1.21.19-2.14,2.25-3.19,3.46,1.11.92,2.17,2.53,3.36,2.62C482.31,312.07,486.38,311.87,490.43,311.87Z" transform="translate(-28.32 -28.12)"/><path d="M509,329.39V309.14c4.22-1.75,6.07-.84,6,3.31-.08,3.94-.15,7.89,0,11.83.3,6.65-2.53,11.11-6.89,12.7l-15.33-5.56C496.61,322.12,503,330.65,509,329.39Z" transform="translate(-28.32 -28.12)"/><path d="M458.57,334.12c6.92-7.51,14.39-8.54,18.68-2.92L462.2,337Z" transform="translate(-28.32 -28.12)"/><path d="M527.68,328.74c0-4.69-.23-8.44.13-12.14.11-1.12,1.83-2.08,2.82-3.12.94,1.07,2.64,2.08,2.71,3.2C533.65,321.1,534.3,325.93,527.68,328.74Z" transform="translate(-28.32 -28.12)"/><text x="-28.32" y="-28.12"/><path d="M609.61,121.81c0-.36.06-.55.06-.74,0-3.66,0-7.33,0-11,0-.94,0-1.89,0-2.83,0-.43,0-.86-.06-1.28a3.85,3.85,0,0,0-3.07-3.67c-.47-.12-.91-.29-1.36-.44,0-.52.4-.5.69-.57l4.85-1.1c4-.9,8.09-1.81,12.14-2.7a6.55,6.55,0,0,1,1.87-.17,2.14,2.14,0,0,1-.33.48c-.36.29-.75.53-1.12.81a7,7,0,0,0-3,5.92c0,9.27,0,18.54,0,27.81q0,4.33,0,8.67a6.62,6.62,0,0,1,0,.77c-.07.54-.27.69-.81.57a3.1,3.1,0,0,1-.72-.26,14.91,14.91,0,0,1-8.77-11.61,21.92,21.92,0,0,1-.22-2.56,1.3,1.3,0,0,0-.48-1q-6.72-5.61-13.41-11.26l-.53-.38c0,.43,0,.72,0,1v14.85c0,.51,0,1,0,1.54a5.18,5.18,0,0,0,2.6,4.72c.42.25.87.44,1.3.67.24.13.55.2.54.68-.28,0-.58.09-.88.1-1.51,0-3,0-4.54,0l-9.18,0c-1.29,0-2.58,0-3.87,0-.32,0-.65-.06-1.14-.11a3.17,3.17,0,0,1,.43-.55,6.65,6.65,0,0,1,.84-.43,5.39,5.39,0,0,0,3.33-5.33c0-3,0-6.06,0-9.1q0-6.09,0-12.18a3.61,3.61,0,0,0-3.11-3.82c-.51-.12-1.08-.14-1.42-.63.11-.45.47-.4.77-.44,1.75-.27,3.51-.53,5.26-.78.88-.13,1.76-.22,2.63-.39a1.38,1.38,0,0,1,1.32.36c2.17,1.86,4.37,3.68,6.56,5.52l12.1,10.16C609,121.33,609.23,121.51,609.61,121.81Z" transform="translate(-28.32 -28.12)"/><path d="M438.3,99.54c.76,2,.5,10.72-.38,12.19a2,2,0,0,1-.55-1.22,22.57,22.57,0,0,0-2.87-6.39,14.48,14.48,0,0,0-3.84-4,9.36,9.36,0,0,0-11.08,0,16.1,16.1,0,0,0-5.29,6.52,25.2,25.2,0,0,0-2.3,8.14A27.81,27.81,0,0,0,413.51,128a18,18,0,0,0,4.61,7,10.46,10.46,0,0,0,5.36,2.72,12.58,12.58,0,0,0,2.81.12,1.63,1.63,0,0,0,1.77-1.53,17.54,17.54,0,0,0,.33-3c.05-2.12,0-4.23,0-6.35a4.59,4.59,0,0,0-2-3.9,8.66,8.66,0,0,0-2.93-1.38c-.5-.13-1-.25-1.49-.41a2.36,2.36,0,0,1-.76-.38c-.31-.24-.21-.6.18-.7a3,3,0,0,1,.6,0h20.42c.33,0,.66,0,1.16.1-.22.28-.3.49-.44.55-.42.19-.85.34-1.28.49a3.74,3.74,0,0,0-2.88,3.87c0,2.75,0,5.49,0,8.24a1.9,1.9,0,0,1-.7,1.55,18.14,18.14,0,0,1-5.64,3.38,30.23,30.23,0,0,1-15,1.91,18.58,18.58,0,0,1-9-3.71,22.66,22.66,0,0,1-9.23-16.3,23.32,23.32,0,0,1,5.28-18,20.06,20.06,0,0,1,12.7-7.37A21.43,21.43,0,0,1,431,97.26a17.65,17.65,0,0,0,4.76,1.91C436.58,99.33,437.41,99.41,438.3,99.54Z" transform="translate(-28.32 -28.12)"/><path d="M525.63,111h12.24c.07.46-.22.62-.5.73-1.67.66-2.16,2-2.16,3.64s0,3.21,0,4.81c0,.32,0,.63,0,.94a1.57,1.57,0,0,0,1.63,1.53c.26,0,.52,0,.78,0,2.34,0,4.69,0,7,0,1,0,1.55-.35,1.79-1.16a3.16,3.16,0,0,0,.08-.76c0-1.89,0-3.78,0-5.66a3.26,3.26,0,0,0-2-3.29.85.85,0,0,1-.68-.81c4.1,0,8.17,0,12.38,0a2.09,2.09,0,0,1-.29.57,1.66,1.66,0,0,1-.52.29,3,3,0,0,0-1.88,2.75c-.06,1-.06,2-.06,3q0,8.46,0,16.91a6.12,6.12,0,0,0,.23,1.6,2.86,2.86,0,0,0,1.69,1.84c.31.13.73.22.73.83-4.09.09-8.16,0-12.24,0-.09-.46.19-.63.47-.74,1.7-.68,2.21-2,2.18-3.71,0-1.54,0-3.09,0-4.63a3.09,3.09,0,0,0,0-.43c-.13-1-.42-1.84-1.89-1.84-2.55,0-5.09,0-7.64,0a1.68,1.68,0,0,0-1.86,1.86c0,1.8,0,3.61,0,5.41a3.23,3.23,0,0,0,2,3.27c.31.13.64.27.65.77-.26,0-.51.07-.75.08a19.79,19.79,0,0,0-6.9,1.59,16.77,16.77,0,0,1-4.43,1.33c-.33,0-.67.06-1.17.11.22-.28.35-.46.49-.61.44-.49.91-1,1.34-1.45a7.6,7.6,0,0,0,1.8-5c0-2.32.09-4.64.09-6.95,0-4.21,0-8.41-.06-12.62a6.06,6.06,0,0,0-.15-1.19,3,3,0,0,0-1.74-2.19C525.81,111.6,525.82,111.58,525.63,111Z" transform="translate(-28.32 -28.12)"/><path d="M477.16,119.38v.76q0,7,0,13.91c0,.4,0,.8,0,1.2a3.08,3.08,0,0,0,1.78,2.64c.35.16.78.25.86.7l0,.11a.1.1,0,0,1-.07.05l-11.49.07a4.84,4.84,0,0,1-.57,0,.37.37,0,0,1,.15-.59c.2-.12.41-.21.61-.31a3,3,0,0,0,1.73-2.49,9.65,9.65,0,0,0,.06-1.2V115.64a9.55,9.55,0,0,0-.06-1.2,3,3,0,0,0-1.7-2.51c-.7-.34-.69-.36-.85-.88a3.6,3.6,0,0,1,.56-.08c2.08,0,4.17,0,6.26,0a1.25,1.25,0,0,1,1.09.67l12,15.36,1,1.2c0-.4.07-.61.07-.82q0-6.06,0-12.11a4.86,4.86,0,0,0-.06-.85,3.17,3.17,0,0,0-1.9-2.57c-.31-.12-.68-.21-.72-.63a.36.36,0,0,1,.05-.09A.12.12,0,0,1,486,111a2.7,2.7,0,0,1,.41-.06h11.8a3.1,3.1,0,0,1-.25.56.8.8,0,0,1-.36.23,3.3,3.3,0,0,0-2.1,3.41q0,9.4,0,18.8a16.15,16.15,0,0,0,1.07,5.79,9.68,9.68,0,0,0,.56,1.05l.57,1.06c-.57-.13-1-.18-1.33-.3a6.08,6.08,0,0,1-2.81-1.75c-1.37-1.58-2.69-3.19-4-4.83q-6-7.69-12.05-15.42c-.07-.09-.12-.19-.18-.28Z" transform="translate(-28.32 -28.12)"/><path d="M519.68,105.66a32.23,32.23,0,0,1,4.26,9.41c-.4-.09-.59-.11-.76-.17a13.85,13.85,0,0,1-3.68-2.19,4.8,4.8,0,0,1-.84-1.16,20.09,20.09,0,0,0-1.54-2.27,7.57,7.57,0,0,0-7.68-2.23,3.39,3.39,0,0,0-2.09,5.38,5.78,5.78,0,0,0,1.49,1.51c3,2.11,6,4.16,9,6.24a22.56,22.56,0,0,1,3.72,3,10.39,10.39,0,0,1,2.84,6.9,13.62,13.62,0,0,1-.68,5.07,8.72,8.72,0,0,1-5.77,5.68,18.59,18.59,0,0,1-11.24-.09,6.8,6.8,0,0,0-3.46-.31c-.49.11-1,.3-1.51.47a4.45,4.45,0,0,1-1.18-1.83,24.55,24.55,0,0,1-.93-3.46,19.24,19.24,0,0,1-.13-5.82c0-.28.11-.55.19-.92a4.75,4.75,0,0,1,1,1.53,22.37,22.37,0,0,0,2.73,4.15,12.75,12.75,0,0,0,4.64,3.59,10.94,10.94,0,0,0,4.75.95,4.81,4.81,0,0,0,4.8-5.4,4.21,4.21,0,0,0-1.77-3c-1.1-.82-2.22-1.61-3.35-2.39q-3.52-2.44-7.07-4.86a11,11,0,0,1-4.18-5.09A9.28,9.28,0,0,1,504.5,107a11.3,11.3,0,0,1,4.74-1.87,17.37,17.37,0,0,1,6.22.41l1.26.27A5,5,0,0,0,519.68,105.66Z" transform="translate(-28.32 -28.12)"/><path d="M462.36,121.27c0,.58-.11,1.09-.1,1.6a2.14,2.14,0,0,0,1.47,2.19,11.72,11.72,0,0,1,1.1.47,2.68,2.68,0,0,1,1.31,1.56c-.45,0-.83.11-1.21.12a58.59,58.59,0,0,0-9.9.89c-1,.19-2,.43-3,.64,0,.31-.05.53-.06.76,0,1.6,0,3.2,0,4.8s.56,2,2,2h5a6.94,6.94,0,0,0,5.31-2.38,10.9,10.9,0,0,0,1.9-2.94c.11-.26.23-.51.39-.86a1.39,1.39,0,0,1,.28,1.1,21.83,21.83,0,0,1-1.57,7.5c-.33,0-.67,0-1,0-3.55,0-7.1,0-10.64,0a45.58,45.58,0,0,0-11.41,1.13c-.33.08-.68.12-1,.17-.11,0-.22,0-.53,0l.66-.65c.79-.82,1.66-1.58,2.37-2.47,1.26-1.56,1.43-3.43,1.32-5.49a12.56,12.56,0,0,0-2.32,1.16,17.05,17.05,0,0,1-2.22,1.12c.15-.3.29-.6.44-.89a21,21,0,0,1,8.18-8.46,25.94,25.94,0,0,1,11-3.56A3.41,3.41,0,0,1,462.36,121.27Z" transform="translate(-28.32 -28.12)"/><path d="M560.65,111.15a1.87,1.87,0,0,1,.44-.14c2-.18,15.13-.08,15.93.14-.15.16-.24.34-.39.41s-.6.17-.9.28a11.43,11.43,0,0,0-1.59.63,3,3,0,0,0-1.65,2.79c0,1.12,0,2.23,0,3.35V134c0,.14,0,.29,0,.43a3.1,3.1,0,0,0,2.13,3.17c.5.22,1,.32,1.55.49.31.11.69.12.79.62a3.2,3.2,0,0,1-.56.13c-2.23.14-15.15,0-15.84-.18.15-.16.25-.34.4-.4.34-.14.72-.19,1.06-.34a10,10,0,0,0,1.84-.88,2.73,2.73,0,0,0,1.23-2.41c0-5.43,0-10.87,0-16.3,0-1,0-2,0-2.92a3.15,3.15,0,0,0-2.16-3.18c-.53-.21-1.09-.34-1.63-.53-.24-.09-.47-.24-.7-.35Z" transform="translate(-28.32 -28.12)"/><path d="M544.1,108c.27-.13.53-.29.8-.41a10.09,10.09,0,0,1,1-.38,1.66,1.66,0,0,0,1.19-1.49l1.7.44.08-.14c-.24-.13-.48-.28-.73-.41a35.56,35.56,0,0,0-8.38-2.72c-3.31-.68-6.67-1-10-1.39-1.59-.18-3.16-.53-4.73-.81a4.68,4.68,0,0,1-.52-.18,2.26,2.26,0,0,1,1.31-1.86A6.49,6.49,0,0,0,527.6,97a16.12,16.12,0,0,0,1.24-1.85c.18-.28.34-.59.52-.88a2.43,2.43,0,0,1,3-1.26c1.09.26,2.18.5,3.24.83,3.17,1,6.35,2,9.47,3.06a29.39,29.39,0,0,1,9.45,5.48c.7.6.77.76.36,1.6a3.86,3.86,0,0,1-.91,1.21,14.88,14.88,0,0,1-9.85,3Z" transform="translate(-28.32 -28.12)"/><path d="M475.32,106.14l1.52-.38a5.08,5.08,0,0,0,.73,1.08,4.68,4.68,0,0,0,1.14.57,5,5,0,0,1,1.21.71,2.47,2.47,0,0,1-.53.1,15,15,0,0,1-8.76-2.51,4,4,0,0,1-1.58-1.77c-.34-.77-.33-1,.33-1.48,1.34-1,2.68-2,4.11-2.95a35,35,0,0,1,8.3-3.66c3.22-1,6.47-1.9,9.72-2.8,1.58-.44,2.37-.07,3.23,1.33.48.78.94,1.58,1.47,2.32a5.54,5.54,0,0,0,2.42,2.12c.55.22.74.64.92,1.74-.88.2-1.75.46-2.64.58-2,.27-4,.46-6,.7a53.14,53.14,0,0,0-13.12,2.92c-.79.31-1.56.71-2.33,1.08a1.26,1.26,0,0,0-.27.2Z" transform="translate(-28.32 -28.12)"/><path d="M511.81,103l-.31-.88c-.61-1.69-1.17-3.4-1.84-5.07a6.51,6.51,0,0,0-3.85-3.7c-1.52-.58-3.07-1.09-4.59-1.65-.4-.14-.77-.33-1.17-.5a1.43,1.43,0,0,1,1-.72c1-.32,2-.65,3-1,.43-.14.85-.34,1.27-.49A7.46,7.46,0,0,0,510,84.37c.49-1.37.93-2.76,1.43-4.13.13-.37.06-1,.57-1s.46.62.6,1c.51,1.42,1,2.87,1.5,4.28a7.16,7.16,0,0,0,4.39,4.42c1.39.51,2.8,1,4.2,1.47.42.15.82.34,1.24.51-.15.61-.6.64-.95.77-1.24.43-2.49.83-3.74,1.26-.43.15-.84.36-1.26.53a7.24,7.24,0,0,0-4,4.38c-.55,1.43-1,2.92-1.47,4.38C512.43,102.52,512.43,102.92,511.81,103Z" transform="translate(-28.32 -28.12)"/><path d="M464,111a19.71,19.71,0,0,1,1.4,8.1l-.2.06a4.92,4.92,0,0,1-.29-.56,10.39,10.39,0,0,0-1.76-2.93,6.14,6.14,0,0,0-4.87-2.3c-1.46,0-2.92,0-4.38,0s-1.93.57-1.94,1.93c0,1.83,0,3.66,0,5.5v1a26,26,0,0,0-6.84,4.68c0-.39-.08-.62-.08-.85,0-3,0-5.95,0-8.93a25.85,25.85,0,0,0-.24-3.16,4.91,4.91,0,0,0-2-3.36c-.36-.26-.69-.56-1-.84l.07-.19a8.27,8.27,0,0,1,.87.1c1.83.35,3.64.76,5.47,1.07a63.13,63.13,0,0,0,9.32.68c1.89,0,3.78,0,5.66,0Z" transform="translate(-28.32 -28.12)"/><path d="M475.29,151.08c-.22.44-.36.71-.49,1l-2.94,6.58a2.49,2.49,0,0,1-1.2,1.47c-1.37-3.08-2.73-6.12-4.09-9.16h-.13a3.12,3.12,0,0,0-.08.52c0,1.91,0,3.83,0,5.75a2.49,2.49,0,0,0,1.31,2.5.77.77,0,0,1,.16.19,16,16,0,0,1-5.18,0c.31-.15.52-.27.74-.35,1.46-.54,1.81-1,1.81-2.61,0-2.06-.05-4.12,0-6.18a2.28,2.28,0,0,0-1.4-2.33,5.68,5.68,0,0,1-.59-.38,31.07,31.07,0,0,1,6.3-.13c.93,2.09,1.89,4.22,2.93,6.55,1-2.3,2-4.42,2.95-6.56h6c-.1.4-.41.46-.65.56a2.1,2.1,0,0,0-1.33,2.1c0,2.23,0,4.46,0,6.69a2.12,2.12,0,0,0,1.49,2.17l1.08.44a42.73,42.73,0,0,1-8.12.08,3.29,3.29,0,0,1,.51-.45,2,2,0,0,0,1-1.54c0-.23.06-.45.06-.68,0-1.86,0-3.72,0-5.58A4.75,4.75,0,0,0,475.29,151.08Z" transform="translate(-28.32 -28.12)"/><path d="M498.12,155.36c0,.89-.06,1.69,0,2.48a2,2,0,0,0,1.45,1.64,2,2,0,0,1,1.09.61c-3.13,0-6.08,0-9.2,0,.23-.21.32-.34.44-.39.29-.13.6-.2.88-.34a1.94,1.94,0,0,0,1.23-1.8q0-3.57,0-7.12a2,2,0,0,0-1.16-1.86,2.27,2.27,0,0,1-.77-.59,4.58,4.58,0,0,1,.63-.1c2.32,0,4.63,0,6.95,0a6.61,6.61,0,0,1,3.43.94,5.23,5.23,0,0,1,.56.4,2.84,2.84,0,0,1-.07,4.79,5.79,5.79,0,0,1-3.24,1.22C499.65,155.3,498.94,155.32,498.12,155.36Zm0-6.57c0,1.86,0,3.72,0,5.58a2.72,2.72,0,0,0,2.65-2.79A2.77,2.77,0,0,0,498.1,148.79Z" transform="translate(-28.32 -28.12)"/><path d="M521,147.61c.92,0,1.74,0,2.55,0,1.73,0,1.3-.26,2,1.28,1.33,2.94,2.65,5.89,3.93,8.85a2.85,2.85,0,0,0,2,1.91,2.07,2.07,0,0,1,.45.25A40.1,40.1,0,0,1,524,160c.08-.36.4-.36.65-.45,1-.36,1.14-.72.77-1.7-.17-.42-.36-.84-.55-1.25-.07-.16-.17-.3-.26-.47h-5.21c-.28.64-.61,1.28-.83,2s0,1.11.69,1.41a3.09,3.09,0,0,1,.83.42,32.16,32.16,0,0,1-5.09.16l-.06-.24a6.44,6.44,0,0,1,.72-.3,2.33,2.33,0,0,0,1.51-1.31q2-4.5,4-9a1,1,0,0,0,0-.9A7,7,0,0,1,521,147.61Zm3.17,7.28-2-4.53a18.5,18.5,0,0,0-1.94,4.53Z" transform="translate(-28.32 -28.12)"/><path d="M571,149.26c-.76,0-1.38,0-2,0a2.16,2.16,0,0,0-1.66.77,17.41,17.41,0,0,0-1,1.61,10.87,10.87,0,0,1-.09-3.71h13.51a9.3,9.3,0,0,1,0,3.57c-.36-.1-.45-.42-.56-.69a2.4,2.4,0,0,0-2.26-1.56c-.59,0-1.18,0-1.82,0a5.43,5.43,0,0,0-.06.58c0,2.46,0,4.92,0,7.38a2.14,2.14,0,0,0,1.65,2.31,5.37,5.37,0,0,1,.56.21,1.4,1.4,0,0,1,.2.16,46.52,46.52,0,0,1-8.92.12,2,2,0,0,1,.38-.32c.2-.1.43-.15.64-.24a2.05,2.05,0,0,0,1.45-2.09c0-2.29,0-4.58,0-6.87Z" transform="translate(-28.32 -28.12)"/><path d="M554.53,148.6a6.13,6.13,0,0,1,0,3.29c-.21-.32-.41-.65-.63-1a4,4,0,0,0-4.11-1.7,3.62,3.62,0,0,0-2.53,1.76,5.23,5.23,0,0,0-.61,4.37,4.52,4.52,0,0,0,7.89,1.53l.39-.46s0,0,.22-.1a6.86,6.86,0,0,1-.35,1,4.75,4.75,0,0,1-2.37,2.16,7.83,7.83,0,0,1-7.77-.67,5.52,5.52,0,0,1-2.59-5.44,5.61,5.61,0,0,1,2.84-4.27,7.73,7.73,0,0,1,6.68-.75A4.67,4.67,0,0,0,554.53,148.6Z" transform="translate(-28.32 -28.12)"/><path d="M453.1,159.85c-1,.36-8.23.31-9.09.06.38-.15.62-.27.87-.35a2.21,2.21,0,0,0,1.75-2.5q0-3.09,0-6.18A2.15,2.15,0,0,0,445,148.5c-.28-.1-.55-.22-.93-.38a54.77,54.77,0,0,1,9.08-.1c-.13.32-.44.34-.67.44-1.49.59-1.79,1-1.79,2.64q0,3,0,6.09a2.11,2.11,0,0,0,1.61,2.32Z" transform="translate(-28.32 -28.12)"/><path d="M555.48,127.09a2.92,2.92,0,0,1,2-1.84,2.43,2.43,0,0,0,1.91-2.9c0-.34-.08-.67-.12-1,.92-.68,3.06-.71,5-.08v6.33Z" transform="translate(-28.32 -28.12)"/><path d="M581.22,133.83l-7.89-4v-4.88A21,21,0,0,1,581.22,133.83Z" transform="translate(-28.32 -28.12)"/></svg>